<?xml version="1.0" encoding="windows-1252"?>
<!-- Generator: Adobe Illustrator 19.0.0, SVG Export Plug-In . SVG Version: 6.00 Build 0)  -->
<svg version="1.1" id="Layer_1" xmlns="http://www.w3.org/2000/svg" xmlns:xlink="http://www.w3.org/1999/xlink" x="0px" y="0px" viewBox="0 0 512 512" style="enable-background:new 0 0 512 512;" xml:space="preserve">
<g transform="translate(1 1)">
	<g>
		<g>
			<path d="M180.76,98.84c1.707,1.707,3.413,2.56,5.973,2.56s4.267-0.853,5.973-2.56c3.413-3.413,3.413-8.533,0-11.947     c-7.68-8.533-7.68-23.04,0-30.72c14.507-14.507,14.507-40.107,0-54.613c-3.413-3.413-8.533-3.413-11.947,0s-3.413,8.533,0,11.947     c7.68,8.533,7.68,23.04,0,30.72C166.253,58.733,166.253,84.333,180.76,98.84z"/>
			<path d="M115.053,100.547c1.707,0.853,2.56,0.853,3.413,0.853c3.413,0,6.827-1.707,7.68-5.12     c1.707-4.267-0.853-9.387-5.12-11.093c-1.707-0.853-2.56-2.56-2.56-4.267c0-2.56,0.853-5.12,3.413-6.827     c8.533-3.413,13.653-11.947,13.653-21.333c0-8.533-5.12-16.213-13.653-19.627c-4.267-1.707-9.387,0.853-11.093,5.12     s0.853,9.387,5.12,11.093c1.707,0.853,2.56,2.56,2.56,4.267c0,2.56-0.853,5.12-3.413,5.973C106.52,63,101.4,71.533,101.4,80.92     C101.4,89.453,106.52,97.133,115.053,100.547z"/>
			<path d="M260.12,100.547c1.707,0.853,2.56,0.853,3.413,0.853c3.413,0,6.827-1.707,7.68-5.12c1.707-4.267-0.853-9.387-5.12-11.093     c-1.707-0.853-2.56-2.56-2.56-4.267c0-2.56,0.853-5.12,3.413-6.827C275.48,70.68,280.6,62.147,280.6,52.76     c0-8.533-5.12-16.213-13.653-19.627c-4.267-1.707-9.387,0.853-11.093,5.12s0.853,9.387,5.12,11.093     c1.707,0.853,2.56,2.56,2.56,4.267c0,2.56-0.853,5.12-3.413,5.973C251.587,63,246.467,71.533,246.467,80.92     C246.467,89.453,251.587,97.133,260.12,100.547z"/>
			<path d="M383,211.48c-2.56,0-5.12,0.853-6.827,2.56s-2.56,4.267-2.56,6.827c0.853,8.533,0.853,17.067,0.853,24.747     c0,40.96-5.973,79.36-17.067,116.053c-0.853,2.56,0,5.12,0.853,6.827c1.707,2.56,3.413,3.413,5.973,4.267     c5.12,0.853,9.387,1.707,14.507,1.707c44.373,0,81.067-36.693,81.067-81.92C459.8,249.027,426.52,213.187,383,211.48z      M377.027,357.4c9.387-34.987,14.507-72.533,14.507-110.933c0-5.12,0-10.24,0-15.36c29.013,5.12,51.2,31.573,51.2,62.293     C442.733,329.24,413.72,358.253,377.027,357.4z"/>
			<path d="M383,161.133c0-3.413-0.853-6.827-0.853-10.24c-0.853-10.24-1.707-21.333-3.413-26.453     c-0.853-3.413-4.267-5.973-8.533-5.973H20.333c-4.267,0-7.68,2.56-8.533,5.973C3.267,157.72-1,211.48-1,246.467     c0,112.64,44.373,215.893,112.64,262.827c1.707,0.853,3.413,1.707,5.12,1.707h157.013c1.707,0,3.413-0.853,5.12-1.707     c28.16-19.627,52.907-49.493,72.533-87.04c9.387,2.56,17.92,3.413,27.307,3.413C451.267,425.667,511,365.933,511,293.4     C511,221.72,453.827,163.693,383,161.133z M297.667,207.213l25.6,25.6v81.92h-51.2v-81.92L297.667,207.213z M379.587,408.6     c-9.387,0-19.627-1.707-29.867-4.267c-4.267-1.707-8.533,0.853-10.24,4.267c-17.92,36.693-41.813,66.56-68.267,85.333h-151.04     C57.027,448.707,16.067,352.28,16.067,246.467c0-32.427,3.413-79.36,11.093-110.933h261.973v56.32l-31.573,31.573     c-1.707,1.707-2.56,3.413-2.56,5.973v93.867c0,5.12,3.413,8.533,8.533,8.533H331.8c5.12,0,8.533-3.413,8.533-8.533V229.4     c0-2.56-0.853-4.267-2.56-5.973L306.2,191.853v-56.32h56.32c0,5.12,0.853,11.093,1.707,17.067     c0.853,7.68,1.707,14.507,2.56,18.773c0.853,4.267,5.12,6.827,9.387,6.827c0.853,0,0.853,0,0.853,0h1.707     c63.147,0,115.2,52.053,115.2,115.2S441.88,408.6,379.587,408.6z"/>
		</g>
	</g>
</g>
</svg>
