<?xml version="1.0" encoding="UTF-8" standalone="no"?>
<!-- Created with Inkscape (http://www.inkscape.org/) -->

<svg
   xmlns:dc="http://purl.org/dc/elements/1.1/"
   xmlns:cc="http://creativecommons.org/ns#"
   xmlns:rdf="http://www.w3.org/1999/02/22-rdf-syntax-ns#"
   xmlns:svg="http://www.w3.org/2000/svg"
   xmlns="http://www.w3.org/2000/svg"
   version="1.1"
   width="32"
   height="32"
   viewBox="0 0 32 32"
   id="svg2"
   xml:space="preserve"><metadata
     id="metadata12"><rdf:RDF><cc:Work
         rdf:about=""><dc:format>image/svg+xml</dc:format><dc:type
           rdf:resource="http://purl.org/dc/dcmitype/StillImage" /><dc:title></dc:title></cc:Work></rdf:RDF></metadata><defs
     id="defs10"><filter
       x="-0.1236"
       y="-0.1236"
       width="1.2472"
       height="1.2472"
       color-interpolation-filters="sRGB"
       id="filter3827"><feGaussianBlur
         stdDeviation="0.8732855"
         id="feGaussianBlur3829" /></filter></defs><g
     id="Guides__x26__Forms" /><g
     id="Icons"><path
       d="m 24,23.543 -4.356,-4.356 c 0.875,-1.168 1.399,-2.614 1.399,-4.186 0,-3.866 -3.134,-7 -7,-7 -3.866,0 -7,3.134 -7,7 0,3.866 3.134,7 7,7 1.572,0 3.018,-0.525 4.186,-1.399 L 22.585,24.958 24,23.543 z M 9.043,15 c 0,-2.757 2.243,-5 5,-5 2.757,0 5,2.243 5,5 0,2.757 -2.243,5 -5,5 -2.757,0 -5,-2.243 -5,-5 z"
       id="path6" /></g><g
     transform="translate(4,0)"
     id="g3762"><path
       d="m 20.779661,24.085373 -4.356,-4.356 c 0.875,-1.168 1.399,-2.614 1.399,-4.186 0,-3.866 -3.134,-7.0000001 -7,-7.0000001 -3.866,0 -7,3.1340001 -7,7.0000001 0,3.866 3.134,7 7,7 1.572,0 3.018,-0.525 4.186,-1.399 l 4.356,4.356 1.415,-1.415 z m -14.957,-8.543 c 0,-2.757 2.243,-5 5,-5 2.757,0 5,2.243 5,5 0,2.757 -2.243,5 -5,5 -2.757,0 -5,-2.243 -5,-5 z"
       id="path3764"
       style="opacity:0.69958849;fill:#000000;fill-opacity:1;filter:url(#filter3827)" /></g></svg>