<?xml version="1.0" encoding="UTF-8" standalone="no"?>
<svg
   xmlns:svg="http://www.w3.org/2000/svg"
   xmlns="http://www.w3.org/2000/svg"
   xmlns:sodipodi="http://sodipodi.sourceforge.net/DTD/sodipodi-0.dtd"
   xmlns:inkscape="http://www.inkscape.org/namespaces/inkscape"
   inkscape:version="1.1-dev (1:1.0+devel+202006301652+a9d5e92)"
   sodipodi:docname="open-book-side-view-svgrepo-com.svg"
   xml:space="preserve"
   viewBox="0 0 343.43224 77.136548"
   height="77.136551"
   width="343.43225"
   y="0px"
   x="0px"
   id="Capa_1"
   version="1.1"><defs
   id="defs41" /><sodipodi:namedview
   inkscape:current-layer="Capa_1"
   inkscape:window-maximized="1"
   inkscape:window-y="29"
   inkscape:window-x="0"
   inkscape:cy="55.128432"
   inkscape:cx="129.49758"
   inkscape:zoom="2.5462386"
   fit-margin-bottom="5"
   fit-margin-right="5"
   fit-margin-left="5"
   fit-margin-top="5"
   showgrid="false"
   id="namedview39"
   inkscape:window-height="1014"
   inkscape:window-width="1920"
   inkscape:pageshadow="2"
   inkscape:pageopacity="0"
   guidetolerance="10"
   gridtolerance="10"
   objecttolerance="10"
   borderopacity="1"
   bordercolor="#666666"
   pagecolor="#ffffff" />
<g
   style="fill:#66194c;fill-opacity:1"
   transform="translate(5.000214,-128.14845)"
   id="g6">
	<g
   style="fill:#66194c;fill-opacity:1"
   id="g4">
		<path
   style="fill:#66194c;fill-opacity:1"
   id="path2"
   d="m 324.676,170.231 -13.975,-1.05 c -2.516,-3.185 -5.332,-8.54 -7.083,-17.536 l -0.754,-3.853 -3.892,-0.479 c -0.427,-0.053 -42.937,-5.318 -76.528,-12.425 -28.149,-5.961 -44.603,4.913 -50.372,9.872 -1.798,1.537 -3.358,3.175 -4.704,4.859 -1.345,-1.685 -2.906,-3.316 -4.699,-4.854 -5.767,-4.952 -22.225,-15.818 -50.377,-9.872 -33.585,7.107 -76.1,12.378 -76.527,12.425 l -3.892,0.48 -0.746,3.847 c -1.735,8.898 -4.504,14.23 -6.998,17.437 l -15.385,1.149 c -5.2,0.385 -9.11,4.926 -8.717,10.13 0.39,5.2 4.931,9.092 10.13,8.712 l 116.197,-8.695 c 5.281,9.334 17.244,19.907 39.707,19.907 0.227,0 0.438,-0.048 0.659,-0.063 0.221,0.016 0.432,0.063 0.659,0.063 22.464,0 34.425,-10.573 39.708,-19.907 l 116.19,8.695 c 5.23,0.386 9.745,-3.512 10.13,-8.712 0.376,-5.204 -3.527,-9.745 -8.731,-10.13 z M 201.63,161.018 c -4.931,-0.366 -9.075,2.927 -9.982,7.631 -0.026,0.121 -2.716,12.735 -24.284,12.735 -0.227,0 -0.438,0.053 -0.659,0.068 -0.221,-0.016 -0.432,-0.068 -0.659,-0.068 -20.595,0 -23.997,-11.612 -24.279,-12.74 -0.907,-4.709 -5.2,-7.981 -9.982,-7.631 l -94.54,7.077 c 1.366,-2.951 2.613,-6.423 3.636,-10.544 11.27,-1.469 45.505,-6.141 73.649,-12.089 16.25,-3.441 31.617,-0.638 41.112,7.499 4.875,4.187 6.457,8.326 6.333,10.6 0,0.039 0.016,0.071 0.016,0.11 0.005,0.161 -0.021,0.327 -0.01,0.49 0.016,0.248 0.134,0.459 0.185,0.696 0.074,0.391 0.14,0.76 0.29,1.118 0.129,0.295 0.309,0.543 0.487,0.807 0.203,0.312 0.404,0.617 0.662,0.875 0.24,0.232 0.514,0.412 0.788,0.602 0.288,0.195 0.562,0.391 0.886,0.527 0.34,0.147 0.699,0.206 1.065,0.279 0.248,0.048 0.464,0.169 0.723,0.185 0.103,0.006 0.195,-0.042 0.298,-0.042 0.108,0 0.201,0.048 0.309,0.042 0.29,-0.016 0.527,-0.147 0.805,-0.211 0.318,-0.068 0.63,-0.116 0.928,-0.242 0.383,-0.153 0.712,-0.38 1.041,-0.617 0.222,-0.163 0.459,-0.306 0.654,-0.501 0.287,-0.279 0.509,-0.606 0.73,-0.949 0.161,-0.248 0.327,-0.479 0.453,-0.754 0.156,-0.358 0.222,-0.733 0.296,-1.129 0.05,-0.237 0.169,-0.442 0.185,-0.69 0.011,-0.164 -0.016,-0.33 -0.011,-0.49 0,-0.04 0.016,-0.071 0.016,-0.111 -0.124,-2.278 1.461,-6.42 6.339,-10.604 9.492,-8.137 24.854,-10.939 41.106,-7.499 28.145,5.948 62.38,10.621 73.648,12.09 1.034,4.168 2.3,7.678 3.682,10.649 z" />
	</g>
</g>
<g
   transform="translate(5.000214,-128.14845)"
   id="g8">
</g>
<g
   transform="translate(5.000214,-128.14845)"
   id="g10">
</g>
<g
   transform="translate(5.000214,-128.14845)"
   id="g12">
</g>
<g
   transform="translate(5.000214,-128.14845)"
   id="g14">
</g>
<g
   transform="translate(5.000214,-128.14845)"
   id="g16">
</g>
<g
   transform="translate(5.000214,-128.14845)"
   id="g18">
</g>
<g
   transform="translate(5.000214,-128.14845)"
   id="g20">
</g>
<g
   transform="translate(5.000214,-128.14845)"
   id="g22">
</g>
<g
   transform="translate(5.000214,-128.14845)"
   id="g24">
</g>
<g
   transform="translate(5.000214,-128.14845)"
   id="g26">
</g>
<g
   transform="translate(5.000214,-128.14845)"
   id="g28">
</g>
<g
   transform="translate(5.000214,-128.14845)"
   id="g30">
</g>
<g
   transform="translate(5.000214,-128.14845)"
   id="g32">
</g>
<g
   transform="translate(5.000214,-128.14845)"
   id="g34">
</g>
<g
   transform="translate(5.000214,-128.14845)"
   id="g36">
</g>
</svg>
