<?xml version="1.0" encoding="utf-8"?>
<!-- Generated by IcoMoon.io -->
<!DOCTYPE svg PUBLIC "-//W3C//DTD SVG 1.1//EN" "http://www.w3.org/Graphics/SVG/1.1/DTD/svg11.dtd">
<svg version="1.1" xmlns="http://www.w3.org/2000/svg" xmlns:xlink="http://www.w3.org/1999/xlink" width="496" height="336" viewBox="0 0 496 336">
<svg id="icon-home3" width="16" height="16" viewBox="0 0 16 16" x="0" y="0">
<path fill="#96939b" d="M16 9.5l-3-3v-4.5h-2v2.5l-3-3-8 8v0.5h2v5h5v-3h2v3h5v-5h2z"></path>
</svg>
<svg id="icon-newspaper" width="16" height="16" viewBox="0 0 16 16" x="32" y="0">
<path fill="#96939b" d="M14 4v-2h-14v11c0 0.552 0.448 1 1 1h13.5c0.828 0 1.5-0.672 1.5-1.5v-8.5h-2zM13 13h-12v-10h12v10zM2 5h10v1h-10zM8 7h4v1h-4zM8 9h4v1h-4zM8 11h3v1h-3zM2 7h5v5h-5z"></path>
</svg>
<svg id="icon-pencil" width="16" height="16" viewBox="0 0 16 16" x="64" y="0">
<path fill="#96939b" d="M13.5 0c1.381 0 2.5 1.119 2.5 2.5 0 0.563-0.186 1.082-0.5 1.5l-1 1-3.5-3.5 1-1c0.418-0.314 0.937-0.5 1.5-0.5zM1 11.5l-1 4.5 4.5-1 9.25-9.25-3.5-3.5-9.25 9.25zM11.181 5.681l-7 7-0.862-0.862 7-7 0.862 0.862z"></path>
</svg>
<svg id="icon-pencil2" width="16" height="16" viewBox="0 0 16 16" x="96" y="0">
<path fill="#96939b" d="M6 10l2-1 7-7-1-1-7 7-1 2zM4.52 13.548c-0.494-1.043-1.026-1.574-2.069-2.069l1.548-4.262 2-1.217 6-6h-3l-6 6-3 10 10-3 6-6v-3l-6 6-1.217 2z"></path>
</svg>
<svg id="icon-image" width="16" height="16" viewBox="0 0 16 16" x="128" y="0">
<path fill="#96939b" d="M14.998 2c0.001 0.001 0.001 0.001 0.002 0.002v11.996c-0.001 0.001-0.001 0.001-0.002 0.002h-13.996c-0.001-0.001-0.001-0.001-0.002-0.002v-11.996c0.001-0.001 0.001-0.001 0.002-0.002h13.996zM15 1h-14c-0.55 0-1 0.45-1 1v12c0 0.55 0.45 1 1 1h14c0.55 0 1-0.45 1-1v-12c0-0.55-0.45-1-1-1v0z"></path>
<path fill="#96939b" d="M13 4.5c0 0.828-0.672 1.5-1.5 1.5s-1.5-0.672-1.5-1.5 0.672-1.5 1.5-1.5 1.5 0.672 1.5 1.5z"></path>
<path fill="#96939b" d="M14 13h-12v-2l3.5-6 4 5h1l3.5-3z"></path>
</svg>
<svg id="icon-images" width="18" height="16" viewBox="0 0 18 16" x="160" y="0">
<path fill="#96939b" d="M17 2h-1v-1c0-0.55-0.45-1-1-1h-14c-0.55 0-1 0.45-1 1v12c0 0.55 0.45 1 1 1h1v1c0 0.55 0.45 1 1 1h14c0.55 0 1-0.45 1-1v-12c0-0.55-0.45-1-1-1zM2 3v10h-0.998c-0.001-0.001-0.001-0.001-0.002-0.002v-11.996c0.001-0.001 0.001-0.001 0.002-0.002h13.996c0.001 0.001 0.001 0.001 0.002 0.002v0.998h-12c-0.55 0-1 0.45-1 1v0zM17 14.998c-0.001 0.001-0.001 0.001-0.002 0.002h-13.996c-0.001-0.001-0.001-0.001-0.002-0.002v-11.996c0.001-0.001 0.001-0.001 0.002-0.002h13.996c0.001 0.001 0.001 0.001 0.002 0.002v11.996z"></path>
<path fill="#96939b" d="M15 5.5c0 0.828-0.672 1.5-1.5 1.5s-1.5-0.672-1.5-1.5 0.672-1.5 1.5-1.5 1.5 0.672 1.5 1.5z"></path>
<path fill="#96939b" d="M16 14h-12v-2l3.5-6 4 5h1l3.5-3z"></path>
</svg>
<svg id="icon-camera" width="16" height="16" viewBox="0 0 16 16" x="192" y="0">
<path fill="#96939b" d="M4.75 9.5c0 1.795 1.455 3.25 3.25 3.25s3.25-1.455 3.25-3.25-1.455-3.25-3.25-3.25-3.25 1.455-3.25 3.25zM15 4h-3.5c-0.25-1-0.5-2-1.5-2h-4c-1 0-1.25 1-1.5 2h-3.5c-0.55 0-1 0.45-1 1v9c0 0.55 0.45 1 1 1h14c0.55 0 1-0.45 1-1v-9c0-0.55-0.45-1-1-1zM8 13.938c-2.451 0-4.438-1.987-4.438-4.438s1.987-4.438 4.438-4.438c2.451 0 4.438 1.987 4.438 4.438s-1.987 4.438-4.438 4.438zM15 7h-2v-1h2v1z"></path>
</svg>
<svg id="icon-headphones" width="16" height="16" viewBox="0 0 16 16" x="224" y="0">
<path fill="#96939b" d="M4.5 9h-1v7h1c0.275 0 0.5-0.225 0.5-0.5v-6c0-0.275-0.225-0.5-0.5-0.5z"></path>
<path fill="#96939b" d="M11.5 9c-0.275 0-0.5 0.225-0.5 0.5v6c0 0.275 0.225 0.5 0.5 0.5h1v-7h-1z"></path>
<path fill="#96939b" d="M16 8c0-4.418-3.582-8-8-8s-8 3.582-8 8c0 0.96 0.169 1.88 0.479 2.732-0.304 0.519-0.479 1.123-0.479 1.768 0 1.763 1.304 3.222 3 3.464v-6.928c-0.499 0.071-0.963 0.248-1.371 0.506-0.084-0.417-0.129-0.849-0.129-1.292 0-3.59 2.91-6.5 6.5-6.5s6.5 2.91 6.5 6.5c0 0.442-0.044 0.874-0.128 1.292-0.408-0.259-0.873-0.435-1.372-0.507v6.929c1.696-0.243 3-1.701 3-3.464 0-0.645-0.175-1.249-0.479-1.768 0.31-0.853 0.479-1.773 0.479-2.732z"></path>
</svg>
<svg id="icon-music" width="16" height="16" viewBox="0 0 16 16" x="256" y="0">
<path fill="#96939b" d="M15 0h1v11.5c0 1.381-1.567 2.5-3.5 2.5s-3.5-1.119-3.5-2.5c0-1.381 1.567-2.5 3.5-2.5 0.979 0 1.865 0.287 2.5 0.751v-5.751l-8 1.778v7.722c0 1.381-1.567 2.5-3.5 2.5s-3.5-1.119-3.5-2.5c0-1.381 1.567-2.5 3.5-2.5 0.979 0 1.865 0.287 2.5 0.751v-9.751l9-2z"></path>
</svg>
<svg id="icon-play" width="16" height="16" viewBox="0 0 16 16" x="288" y="0">
<path fill="#96939b" d="M15.331 2.502c-2.244-0.323-4.724-0.502-7.331-0.502s-5.087 0.179-7.331 0.502c-0.43 1.683-0.669 3.543-0.669 5.498s0.239 3.815 0.669 5.498c2.244 0.323 4.724 0.502 7.331 0.502s5.087-0.179 7.331-0.502c0.43-1.683 0.669-3.543 0.669-5.498s-0.239-3.815-0.669-5.498zM6 11v-6l5 3-5 3z"></path>
</svg>
<svg id="icon-film" width="16" height="16" viewBox="0 0 16 16" x="320" y="0">
<path fill="#96939b" d="M0 2v12h16v-12h-16zM3 13h-2v-2h2v2zM3 9h-2v-2h2v2zM3 5h-2v-2h2v2zM12 13h-8v-10h8v10zM15 13h-2v-2h2v2zM15 9h-2v-2h2v2zM15 5h-2v-2h2v2zM6 5v6l4-3z"></path>
</svg>
<svg id="icon-mic" width="16" height="16" viewBox="0 0 16 16" x="352" y="0">
<path fill="#96939b" d="M7.5 11c1.381 0 2.5-1.119 2.5-2.5v-6c0-1.381-1.119-2.5-2.5-2.5s-2.5 1.119-2.5 2.5v6c0 1.381 1.119 2.5 2.5 2.5zM11 7v1.5c0 1.933-1.567 3.5-3.5 3.5s-3.5-1.567-3.5-3.5v-1.5h-1v1.5c0 2.316 1.75 4.223 4 4.472v2.028h-2v1h5v-1h-2v-2.028c2.25-0.249 4-2.156 4-4.472v-1.5h-1z"></path>
</svg>
<svg id="icon-book" width="16" height="16" viewBox="0 0 16 16" x="384" y="0">
<path fill="#96939b" d="M14 2v13h-10.5c-0.829 0-1.5-0.672-1.5-1.5s0.671-1.5 1.5-1.5h9.5v-12h-10c-1.1 0-2 0.9-2 2v12c0 1.1 0.9 2 2 2h12v-14h-1z"></path>
<path fill="#96939b" d="M3.501 13v0c-0 0-0.001 0-0.001 0-0.276 0-0.5 0.224-0.5 0.5s0.224 0.5 0.5 0.5c0 0 0.001-0 0.001-0v0h9.498v-1h-9.498z"></path>
</svg>
<svg id="icon-books" width="18" height="16" viewBox="0 0 18 16" x="416" y="0">
<path fill="#96939b" d="M3.5 2h-3c-0.275 0-0.5 0.225-0.5 0.5v11c0 0.275 0.225 0.5 0.5 0.5h3c0.275 0 0.5-0.225 0.5-0.5v-11c0-0.275-0.225-0.5-0.5-0.5zM3 5h-2v-1h2v1z"></path>
<path fill="#96939b" d="M8.5 2h-3c-0.275 0-0.5 0.225-0.5 0.5v11c0 0.275 0.225 0.5 0.5 0.5h3c0.275 0 0.5-0.225 0.5-0.5v-11c0-0.275-0.225-0.5-0.5-0.5zM8 5h-2v-1h2v1z"></path>
<path fill="#96939b" d="M11.954 2.773l-2.679 1.35c-0.246 0.124-0.345 0.426-0.222 0.671l4.5 8.93c0.124 0.246 0.426 0.345 0.671 0.222l2.679-1.35c0.246-0.124 0.345-0.426 0.222-0.671l-4.5-8.93c-0.124-0.246-0.426-0.345-0.671-0.222z"></path>
</svg>
<svg id="icon-file-text" width="16" height="16" viewBox="0 0 16 16" x="448" y="0">
<path fill="#96939b" d="M13.5 0h-12c-0.825 0-1.5 0.675-1.5 1.5v13c0 0.825 0.675 1.5 1.5 1.5h12c0.825 0 1.5-0.675 1.5-1.5v-13c0-0.825-0.675-1.5-1.5-1.5zM13 14h-11v-12h11v12zM4 7h7v1h-7zM4 9h7v1h-7zM4 11h7v1h-7zM4 5h7v1h-7z"></path>
</svg>
<svg id="icon-profile" width="16" height="16" viewBox="0 0 16 16" x="480" y="0">
<path fill="#96939b" d="M13.5 0h-12c-0.825 0-1.5 0.675-1.5 1.5v13c0 0.825 0.675 1.5 1.5 1.5h12c0.825 0 1.5-0.675 1.5-1.5v-13c0-0.825-0.675-1.5-1.5-1.5zM13 14h-11v-12h11v12zM4 9h7v1h-7zM4 11h7v1h-7zM5 4.5c0-0.828 0.672-1.5 1.5-1.5s1.5 0.672 1.5 1.5c0 0.828-0.672 1.5-1.5 1.5s-1.5-0.672-1.5-1.5zM7.5 6h-2c-0.825 0-1.5 0.45-1.5 1v1h5v-1c0-0.55-0.675-1-1.5-1z"></path>
</svg>
<svg id="icon-file-empty" width="16" height="16" viewBox="0 0 16 16" x="0" y="32">
<path fill="#96939b" d="M14.341 3.579c-0.347-0.473-0.831-1.027-1.362-1.558s-1.085-1.015-1.558-1.362c-0.806-0.591-1.197-0.659-1.421-0.659h-7.75c-0.689 0-1.25 0.561-1.25 1.25v13.5c0 0.689 0.561 1.25 1.25 1.25h11.5c0.689 0 1.25-0.561 1.25-1.25v-9.75c0-0.224-0.068-0.615-0.659-1.421zM12.271 2.729c0.48 0.48 0.856 0.912 1.134 1.271h-2.406v-2.405c0.359 0.278 0.792 0.654 1.271 1.134zM14 14.75c0 0.136-0.114 0.25-0.25 0.25h-11.5c-0.135 0-0.25-0.114-0.25-0.25v-13.5c0-0.135 0.115-0.25 0.25-0.25 0 0 7.749-0 7.75 0v3.5c0 0.276 0.224 0.5 0.5 0.5h3.5v9.75z"></path>
</svg>
<svg id="icon-files-empty" width="16" height="16" viewBox="0 0 16 16" x="32" y="32">
<path fill="#96939b" d="M14.341 5.579c-0.347-0.473-0.831-1.027-1.362-1.558s-1.085-1.015-1.558-1.362c-0.806-0.591-1.197-0.659-1.421-0.659h-5.75c-0.689 0-1.25 0.561-1.25 1.25v11.5c0 0.689 0.561 1.25 1.25 1.25h9.5c0.689 0 1.25-0.561 1.25-1.25v-7.75c0-0.224-0.068-0.615-0.659-1.421zM12.271 4.729c0.48 0.48 0.856 0.912 1.134 1.271h-2.406v-2.405c0.359 0.278 0.792 0.654 1.271 1.134v0zM14 14.75c0 0.136-0.114 0.25-0.25 0.25h-9.5c-0.136 0-0.25-0.114-0.25-0.25v-11.5c0-0.135 0.114-0.25 0.25-0.25 0 0 5.749-0 5.75 0v3.5c0 0.276 0.224 0.5 0.5 0.5h3.5v7.75z"></path>
<path fill="#96939b" d="M9.421 0.659c-0.806-0.591-1.197-0.659-1.421-0.659h-5.75c-0.689 0-1.25 0.561-1.25 1.25v11.5c0 0.604 0.43 1.109 1 1.225v-12.725c0-0.135 0.115-0.25 0.25-0.25h7.607c-0.151-0.124-0.297-0.238-0.437-0.341z"></path>
</svg>
<svg id="icon-file-text2" width="16" height="16" viewBox="0 0 16 16" x="64" y="32">
<path fill="#96939b" d="M14.341 3.579c-0.347-0.473-0.831-1.027-1.362-1.558s-1.085-1.015-1.558-1.362c-0.806-0.591-1.197-0.659-1.421-0.659h-7.75c-0.689 0-1.25 0.561-1.25 1.25v13.5c0 0.689 0.561 1.25 1.25 1.25h11.5c0.689 0 1.25-0.561 1.25-1.25v-9.75c0-0.224-0.068-0.615-0.659-1.421zM12.271 2.729c0.48 0.48 0.856 0.912 1.134 1.271h-2.406v-2.405c0.359 0.278 0.792 0.654 1.271 1.134zM14 14.75c0 0.136-0.114 0.25-0.25 0.25h-11.5c-0.135 0-0.25-0.114-0.25-0.25v-13.5c0-0.135 0.115-0.25 0.25-0.25 0 0 7.749-0 7.75 0v3.5c0 0.276 0.224 0.5 0.5 0.5h3.5v9.75z"></path>
<path fill="#96939b" d="M11.5 13h-7c-0.276 0-0.5-0.224-0.5-0.5s0.224-0.5 0.5-0.5h7c0.276 0 0.5 0.224 0.5 0.5s-0.224 0.5-0.5 0.5z"></path>
<path fill="#96939b" d="M11.5 11h-7c-0.276 0-0.5-0.224-0.5-0.5s0.224-0.5 0.5-0.5h7c0.276 0 0.5 0.224 0.5 0.5s-0.224 0.5-0.5 0.5z"></path>
<path fill="#96939b" d="M11.5 9h-7c-0.276 0-0.5-0.224-0.5-0.5s0.224-0.5 0.5-0.5h7c0.276 0 0.5 0.224 0.5 0.5s-0.224 0.5-0.5 0.5z"></path>
</svg>
<svg id="icon-file-picture" width="16" height="16" viewBox="0 0 16 16" x="96" y="32">
<path fill="#96939b" d="M13 14h-10v-2l3-5 4.109 5 2.891-2v4z"></path>
<path fill="#96939b" d="M13 7.5c0 0.828-0.672 1.5-1.5 1.5s-1.5-0.672-1.5-1.5 0.672-1.5 1.5-1.5c0.828 0 1.5 0.672 1.5 1.5z"></path>
<path fill="#96939b" d="M14.341 3.579c-0.347-0.473-0.831-1.027-1.362-1.558s-1.085-1.015-1.558-1.362c-0.806-0.591-1.197-0.659-1.421-0.659h-7.75c-0.689 0-1.25 0.561-1.25 1.25v13.5c0 0.689 0.561 1.25 1.25 1.25h11.5c0.689 0 1.25-0.561 1.25-1.25v-9.75c0-0.224-0.068-0.615-0.659-1.421zM12.271 2.729c0.48 0.48 0.856 0.912 1.134 1.271h-2.406v-2.405c0.359 0.278 0.792 0.654 1.271 1.134zM14 14.75c0 0.136-0.114 0.25-0.25 0.25h-11.5c-0.135 0-0.25-0.114-0.25-0.25v-13.5c0-0.135 0.115-0.25 0.25-0.25 0 0 7.749-0 7.75 0v3.5c0 0.276 0.224 0.5 0.5 0.5h3.5v9.75z"></path>
</svg>
<svg id="icon-file-music" width="16" height="16" viewBox="0 0 16 16" x="128" y="32">
<path fill="#96939b" d="M14.341 3.579c-0.347-0.473-0.831-1.027-1.362-1.558s-1.085-1.015-1.558-1.362c-0.806-0.591-1.197-0.659-1.421-0.659h-7.75c-0.689 0-1.25 0.561-1.25 1.25v13.5c0 0.689 0.561 1.25 1.25 1.25h11.5c0.689 0 1.25-0.561 1.25-1.25v-9.75c0-0.224-0.068-0.615-0.659-1.421v0zM12.271 2.729c0.48 0.48 0.856 0.912 1.134 1.271h-2.406v-2.405c0.359 0.278 0.792 0.654 1.271 1.134v0zM14 14.75c0 0.136-0.114 0.25-0.25 0.25h-11.5c-0.135 0-0.25-0.114-0.25-0.25v-13.5c0-0.135 0.115-0.25 0.25-0.25 0 0 7.749-0 7.75 0v3.5c0 0.276 0.224 0.5 0.5 0.5h3.5v9.75z"></path>
<path fill="#96939b" d="M11.817 6.113c-0.116-0.095-0.268-0.133-0.415-0.104l-5 1c-0.234 0.047-0.402 0.252-0.402 0.49v3.701c-0.294-0.128-0.636-0.201-1-0.201-1.105 0-2 0.672-2 1.5s0.895 1.5 2 1.5 2-0.672 2-1.5v-3.59l4-0.8v2.091c-0.294-0.128-0.636-0.201-1-0.201-1.105 0-2 0.672-2 1.5s0.895 1.5 2 1.5 2-0.672 2-1.5v-5c0-0.15-0.067-0.292-0.183-0.387z"></path>
</svg>
<svg id="icon-file-play" width="16" height="16" viewBox="0 0 16 16" x="160" y="32">
<path fill="#96939b" d="M6 6l5 3.5-5 3.5v-7z"></path>
<path fill="#96939b" d="M14.341 3.579c-0.347-0.473-0.831-1.027-1.362-1.558s-1.085-1.015-1.558-1.362c-0.806-0.591-1.197-0.659-1.421-0.659h-7.75c-0.689 0-1.25 0.561-1.25 1.25v13.5c0 0.689 0.561 1.25 1.25 1.25h11.5c0.689 0 1.25-0.561 1.25-1.25v-9.75c0-0.224-0.068-0.615-0.659-1.421zM12.271 2.729c0.48 0.48 0.856 0.912 1.134 1.271h-2.406v-2.405c0.359 0.278 0.792 0.654 1.271 1.134zM14 14.75c0 0.136-0.114 0.25-0.25 0.25h-11.5c-0.135 0-0.25-0.114-0.25-0.25v-13.5c0-0.135 0.115-0.25 0.25-0.25 0 0 7.749-0 7.75 0v3.5c0 0.276 0.224 0.5 0.5 0.5h3.5v9.75z"></path>
</svg>
<svg id="icon-file-video" width="16" height="16" viewBox="0 0 16 16" x="192" y="32">
<path fill="#96939b" d="M14.341 3.579c-0.347-0.473-0.831-1.027-1.362-1.558s-1.085-1.015-1.558-1.362c-0.806-0.591-1.197-0.659-1.421-0.659h-7.75c-0.689 0-1.25 0.561-1.25 1.25v13.5c0 0.689 0.561 1.25 1.25 1.25h11.5c0.689 0 1.25-0.561 1.25-1.25v-9.75c0-0.224-0.068-0.615-0.659-1.421v0 0zM12.271 2.729c0.48 0.48 0.856 0.912 1.134 1.271h-2.406v-2.405c0.359 0.278 0.792 0.654 1.271 1.134v0 0zM14 14.75c0 0.136-0.114 0.25-0.25 0.25h-11.5c-0.135 0-0.25-0.114-0.25-0.25v-13.5c0-0.135 0.115-0.25 0.25-0.25 0 0 7.749-0 7.75 0v3.5c0 0.276 0.224 0.5 0.5 0.5h3.5v9.75z"></path>
<path fill="#96939b" d="M4 8h5v5h-5v-5z"></path>
<path fill="#96939b" d="M9 10l3-2v5l-3-2z"></path>
</svg>
<svg id="icon-file-zip" width="16" height="16" viewBox="0 0 16 16" x="224" y="32">
<path fill="#96939b" d="M14.341 3.579c-0.347-0.473-0.831-1.027-1.362-1.558s-1.085-1.015-1.558-1.362c-0.806-0.591-1.197-0.659-1.421-0.659h-7.75c-0.689 0-1.25 0.561-1.25 1.25v13.5c0 0.689 0.561 1.25 1.25 1.25h11.5c0.689 0 1.25-0.561 1.25-1.25v-9.75c0-0.224-0.068-0.615-0.659-1.421v0 0zM12.271 2.729c0.48 0.48 0.856 0.912 1.134 1.271h-2.406v-2.405c0.359 0.278 0.792 0.654 1.271 1.134v0 0zM14 14.75c0 0.136-0.114 0.25-0.25 0.25h-11.5c-0.135 0-0.25-0.114-0.25-0.25v-13.5c0-0.135 0.115-0.25 0.25-0.25 0 0 7.749-0 7.75 0v3.5c0 0.276 0.224 0.5 0.5 0.5h3.5v9.75z"></path>
<path fill="#96939b" d="M4 1h2v1h-2v-1z"></path>
<path fill="#96939b" d="M6 2h2v1h-2v-1z"></path>
<path fill="#96939b" d="M4 3h2v1h-2v-1z"></path>
<path fill="#96939b" d="M6 4h2v1h-2v-1z"></path>
<path fill="#96939b" d="M4 5h2v1h-2v-1z"></path>
<path fill="#96939b" d="M6 6h2v1h-2v-1z"></path>
<path fill="#96939b" d="M4 7h2v1h-2v-1z"></path>
<path fill="#96939b" d="M6 8h2v1h-2v-1z"></path>
<path fill="#96939b" d="M4 13.25c0 0.412 0.338 0.75 0.75 0.75h2.5c0.412 0 0.75-0.338 0.75-0.75v-2.5c0-0.412-0.338-0.75-0.75-0.75h-1.25v-1h-2v4.25zM7 12v1h-2v-1h2z"></path>
</svg>
<svg id="icon-copy" width="16" height="16" viewBox="0 0 16 16" x="256" y="32">
<path fill="#96939b" d="M10 4v-4h-7l-3 3v9h6v4h10v-12h-6zM3 1.414v1.586h-1.586l1.586-1.586zM1 11v-7h3v-3h5v3l-3 3v4h-5zM9 5.414v1.586h-1.586l1.586-1.586zM15 15h-8v-7h3v-3h5v10z"></path>
</svg>
<svg id="icon-paste" width="16" height="16" viewBox="0 0 16 16" x="288" y="32">
<path fill="#96939b" d="M11 2h-2v-1c0-0.55-0.45-1-1-1h-2c-0.55 0-1 0.45-1 1v1h-2v2h8v-2zM8 2h-2v-0.998c0.001-0.001 0.001-0.001 0.002-0.002h1.996c0.001 0.001 0.001 0.001 0.002 0.002v0.998zM13 5v-2.5c0-0.275-0.225-0.5-0.5-0.5h-1v1h0.5v2h-3l-3 3v4h-4v-9h0.5v-1h-1c-0.275 0-0.5 0.225-0.5 0.5v10c0 0.275 0.225 0.5 0.5 0.5h4.5v3h10v-11h-3zM9 6.414v1.586h-1.586l1.586-1.586zM15 15h-8v-6h3v-3h5v9z"></path>
</svg>
<svg id="icon-folder" width="16" height="16" viewBox="0 0 16 16" x="320" y="32">
<path fill="#96939b" d="M7 2l2 2h7v11h-16v-13z"></path>
</svg>
<svg id="icon-folder-open" width="16" height="16" viewBox="0 0 16 16" x="352" y="32">
<path fill="#96939b" d="M13 15l3-8h-13l-3 8zM2 6l-2 9v-13h4.5l2 2h6.5v2z"></path>
</svg>
<svg id="icon-price-tag" width="16" height="16" viewBox="0 0 16 16" x="384" y="32">
<path fill="#96939b" d="M15.25 0h-6c-0.412 0-0.989 0.239-1.28 0.53l-7.439 7.439c-0.292 0.292-0.292 0.769 0 1.061l6.439 6.439c0.292 0.292 0.769 0.292 1.061 0l7.439-7.439c0.292-0.292 0.53-0.868 0.53-1.28v-6c0-0.412-0.338-0.75-0.75-0.75zM11.5 6c-0.828 0-1.5-0.672-1.5-1.5s0.672-1.5 1.5-1.5 1.5 0.672 1.5 1.5-0.672 1.5-1.5 1.5z"></path>
</svg>
<svg id="icon-price-tags" width="20" height="16" viewBox="0 0 20 16" x="416" y="32">
<path fill="#96939b" d="M19.25 0h-6c-0.412 0-0.989 0.239-1.28 0.53l-7.439 7.439c-0.292 0.292-0.292 0.769 0 1.061l6.439 6.439c0.292 0.292 0.769 0.292 1.061 0l7.439-7.439c0.292-0.292 0.53-0.868 0.53-1.28v-6c0-0.412-0.337-0.75-0.75-0.75zM15.5 6c-0.828 0-1.5-0.672-1.5-1.5s0.672-1.5 1.5-1.5 1.5 0.672 1.5 1.5-0.672 1.5-1.5 1.5z"></path>
<path fill="#96939b" d="M2 8.5l8.5-8.5h-1.25c-0.412 0-0.989 0.239-1.28 0.53l-7.439 7.439c-0.292 0.292-0.292 0.769 0 1.061l6.439 6.439c0.292 0.292 0.769 0.292 1.061 0l0.47-0.47-6.5-6.5z"></path>
</svg>
<svg id="icon-phone" width="16" height="16" viewBox="0 0 16 16" x="448" y="32">
<path fill="#96939b" d="M11 10c-1 1-1 2-2 2s-2-1-3-2-2-2-2-3 1-1 2-2-2-4-3-4-3 3-3 3c0 2 2.055 6.055 4 8s6 4 8 4c0 0 3-2 3-3s-3-4-4-3z"></path>
</svg>
<svg id="icon-envelop" width="16" height="16" viewBox="0 0 16 16" x="480" y="32">
<path fill="#96939b" d="M14.5 2h-13c-0.825 0-1.5 0.675-1.5 1.5v10c0 0.825 0.675 1.5 1.5 1.5h13c0.825 0 1.5-0.675 1.5-1.5v-10c0-0.825-0.675-1.5-1.5-1.5zM6.23 8.6l-4.23 3.295v-7.838l4.23 4.543zM2.756 4h10.488l-5.244 3.938-5.244-3.938zM6.395 8.777l1.605 1.723 1.605-1.723 3.29 4.223h-9.79l3.29-4.223zM9.77 8.6l4.23-4.543v7.838l-4.23-3.295z"></path>
</svg>
<svg id="icon-clock" width="16" height="16" viewBox="0 0 16 16" x="0" y="64">
<path fill="#96939b" d="M10.293 11.707l-3.293-3.293v-4.414h2v3.586l2.707 2.707zM8 0c-4.418 0-8 3.582-8 8s3.582 8 8 8 8-3.582 8-8-3.582-8-8-8zM8 14c-3.314 0-6-2.686-6-6s2.686-6 6-6c3.314 0 6 2.686 6 6s-2.686 6-6 6z"></path>
</svg>
<svg id="icon-clock2" width="16" height="16" viewBox="0 0 16 16" x="32" y="64">
<path fill="#96939b" d="M8 0c-4.418 0-8 3.582-8 8s3.582 8 8 8 8-3.582 8-8-3.582-8-8-8zM10.293 11.707l-3.293-3.293v-4.414h2v3.586l2.707 2.707-1.414 1.414z"></path>
</svg>
<svg id="icon-alarm" width="16" height="16" viewBox="0 0 16 16" x="64" y="64">
<path fill="#96939b" d="M8 2c-3.866 0-7 3.134-7 7s3.134 7 7 7 7-3.134 7-7-3.134-7-7-7zM8 14.625c-3.107 0-5.625-2.518-5.625-5.625s2.518-5.625 5.625-5.625c3.107 0 5.625 2.518 5.625 5.625s-2.518 5.625-5.625 5.625zM14.606 4.487c0.251-0.438 0.394-0.946 0.394-1.487 0-1.657-1.343-3-3-3-0.966 0-1.825 0.457-2.374 1.166 2.061 0.426 3.831 1.644 4.98 3.322v0zM6.374 1.166c-0.549-0.709-1.408-1.166-2.374-1.166-1.657 0-3 1.343-3 3 0 0.541 0.143 1.049 0.394 1.487 1.148-1.678 2.919-2.896 4.98-3.322z"></path>
<path fill="#96939b" d="M8 9v-4h-1v5h4v-1z"></path>
</svg>
<svg id="icon-calendar" width="16" height="16" viewBox="0 0 16 16" x="96" y="64">
<path fill="#96939b" d="M5 6h2v2h-2zM8 6h2v2h-2zM11 6h2v2h-2zM2 12h2v2h-2zM5 12h2v2h-2zM8 12h2v2h-2zM5 9h2v2h-2zM8 9h2v2h-2zM11 9h2v2h-2zM2 9h2v2h-2zM13 0v1h-2v-1h-7v1h-2v-1h-2v16h15v-16h-2zM14 15h-13v-11h13v11z"></path>
</svg>
<svg id="icon-printer" width="16" height="16" viewBox="0 0 16 16" x="128" y="64">
<path fill="#96939b" d="M4 1h8v2h-8v-2z"></path>
<path fill="#96939b" d="M15 4h-14c-0.55 0-1 0.45-1 1v5c0 0.55 0.45 1 1 1h3v4h8v-4h3c0.55 0 1-0.45 1-1v-5c0-0.55-0.45-1-1-1zM2 7c-0.552 0-1-0.448-1-1s0.448-1 1-1 1 0.448 1 1-0.448 1-1 1zM11 14h-6v-5h6v5z"></path>
</svg>
<svg id="icon-mobile" width="16" height="16" viewBox="0 0 16 16" x="160" y="64">
<path fill="#96939b" d="M11.5 0h-7c-0.825 0-1.5 0.675-1.5 1.5v13c0 0.825 0.675 1.5 1.5 1.5h7c0.825 0 1.5-0.675 1.5-1.5v-13c0-0.825-0.675-1.5-1.5-1.5zM6 0.75h4v0.5h-4v-0.5zM8 15c-0.552 0-1-0.448-1-1s0.448-1 1-1 1 0.448 1 1-0.448 1-1 1zM12 12h-8v-10h8v10z"></path>
</svg>
<svg id="icon-mobile2" width="16" height="16" viewBox="0 0 16 16" x="192" y="64">
<path fill="#96939b" d="M12 0h-9c-0.55 0-1 0.45-1 1v14c0 0.55 0.45 1 1 1h9c0.55 0 1-0.45 1-1v-14c0-0.55-0.45-1-1-1zM7.5 15.278c-0.43 0-0.778-0.348-0.778-0.778s0.348-0.778 0.778-0.778 0.778 0.348 0.778 0.778-0.348 0.778-0.778 0.778zM12 13h-9v-11h9v11z"></path>
</svg>
<svg id="icon-drawer" width="16" height="16" viewBox="0 0 16 16" x="224" y="64">
<path fill="#96939b" d="M15.89 10.188l-4-5c-0.095-0.119-0.239-0.188-0.39-0.188h-7c-0.152 0-0.296 0.069-0.39 0.188l-4 5c-0.071 0.089-0.11 0.199-0.11 0.312v4.5c0 0.552 0.448 1 1 1h14c0.552 0 1-0.448 1-1v-4.5c0-0.114-0.039-0.224-0.11-0.312zM15 11h-3.5l-2 2h-3l-2-2h-3.5v-0.325l3.74-4.675h6.519l3.74 4.675v0.325z"></path>
<path fill="#96939b" d="M11.5 8h-7c-0.276 0-0.5-0.224-0.5-0.5s0.224-0.5 0.5-0.5h7c0.276 0 0.5 0.224 0.5 0.5s-0.224 0.5-0.5 0.5z"></path>
<path fill="#96939b" d="M12.5 10h-9c-0.276 0-0.5-0.224-0.5-0.5s0.224-0.5 0.5-0.5h9c0.276 0 0.5 0.224 0.5 0.5s-0.224 0.5-0.5 0.5z"></path>
</svg>
<svg id="icon-drawer2" width="16" height="16" viewBox="0 0 16 16" x="256" y="64">
<path fill="#96939b" d="M15.89 10.188l-4-5c-0.095-0.119-0.239-0.188-0.39-0.188h-7c-0.152 0-0.296 0.069-0.39 0.188l-4 5c-0.071 0.089-0.11 0.199-0.11 0.312v4.5c0 0.552 0.448 1 1 1h14c0.552 0 1-0.448 1-1v-4.5c0-0.114-0.039-0.224-0.11-0.312zM15 11h-3.5l-2 2h-3l-2-2h-3.5v-0.325l3.74-4.675h6.519l3.74 4.675v0.325z"></path>
</svg>
<svg id="icon-box-add" width="16" height="16" viewBox="0 0 16 16" x="288" y="64">
<path fill="#96939b" d="M13 1h-10l-3 3v10.5c0 0.276 0.224 0.5 0.5 0.5h15c0.276 0 0.5-0.224 0.5-0.5v-10.5l-3-3zM8 13l-5-4h3v-3h4v3h3l-5 4zM2.414 3l1-1h9.172l1 1h-11.172z"></path>
</svg>
<svg id="icon-box-remove" width="16" height="16" viewBox="0 0 16 16" x="320" y="64">
<path fill="#96939b" d="M13 1h-10l-3 3v10.5c0 0.276 0.224 0.5 0.5 0.5h15c0.276 0 0.5-0.224 0.5-0.5v-10.5l-3-3zM10 10v3h-4v-3h-3l5-4 5 4h-3zM2.414 3l1-1h9.171l1 1h-11.171z"></path>
</svg>
<svg id="icon-floppy-disk" width="16" height="16" viewBox="0 0 16 16" x="352" y="64">
<path fill="#96939b" d="M14 0h-14v16h16v-14l-2-2zM8 2h2v4h-2v-4zM14 14h-12v-12h1v5h9v-5h1.172l0.828 0.828v11.172z"></path>
</svg>
<svg id="icon-undo" width="16" height="16" viewBox="0 0 16 16" x="384" y="64">
<path fill="#96939b" d="M8 1c-2.209 0-4.209 0.896-5.657 2.343l-2.343-2.343v6h6l-2.243-2.243c1.086-1.086 2.586-1.757 4.243-1.757 3.314 0 6 2.686 6 6 0 1.792-0.786 3.401-2.032 4.5l1.323 1.5c1.661-1.466 2.709-3.611 2.709-6 0-4.418-3.582-8-8-8z"></path>
</svg>
<svg id="icon-redo" width="16" height="16" viewBox="0 0 16 16" x="416" y="64">
<path fill="#96939b" d="M0 9c0 2.389 1.048 4.534 2.709 6l1.323-1.5c-1.246-1.099-2.031-2.708-2.031-4.5 0-3.314 2.686-6 6-6 1.657 0 3.157 0.672 4.243 1.757l-2.243 2.243h6v-6l-2.343 2.343c-1.448-1.448-3.448-2.343-5.657-2.343-4.418 0-8 3.582-8 8z"></path>
</svg>
<svg id="icon-undo2" width="16" height="16" viewBox="0 0 16 16" x="448" y="64">
<path fill="#96939b" d="M11.904 16c1.777-3.219 2.076-8.13-4.904-7.966v3.966l-6-6 6-6v3.881c8.359-0.218 9.29 7.378 4.904 12.119z"></path>
</svg>
<svg id="icon-redo2" width="16" height="16" viewBox="0 0 16 16" x="480" y="64">
<path fill="#96939b" d="M9 3.881v-3.881l6 6-6 6v-3.966c-6.98-0.164-6.681 4.747-4.904 7.966-4.386-4.741-3.455-12.337 4.904-12.119z"></path>
</svg>
<svg id="icon-forward" width="16" height="16" viewBox="0 0 16 16" x="0" y="96">
<path fill="#96939b" d="M4.096 0c-1.777 3.219-2.076 8.13 4.904 7.966v-3.966l6 6-6 6v-3.881c-8.359 0.218-9.29-7.378-4.904-12.119z"></path>
</svg>
<svg id="icon-reply" width="16" height="16" viewBox="0 0 16 16" x="32" y="96">
<path fill="#96939b" d="M7 12.119v3.881l-6-6 6-6v3.966c6.98 0.164 6.681-4.747 4.904-7.966 4.386 4.741 3.455 12.337-4.904 12.119z"></path>
</svg>
<svg id="icon-bubble" width="16" height="16" viewBox="0 0 16 16" x="64" y="96">
<path fill="#96939b" d="M8 1c4.418 0 8 2.91 8 6.5s-3.582 6.5-8 6.5c-0.424 0-0.841-0.027-1.247-0.079-1.718 1.718-3.77 2.027-5.753 2.072v-0.421c1.071-0.525 2-1.48 2-2.572 0-0.152-0.012-0.302-0.034-0.448-1.809-1.192-2.966-3.012-2.966-5.052 0-3.59 3.582-6.5 8-6.5z"></path>
</svg>
<svg id="icon-bubbles" width="18" height="16" viewBox="0 0 18 16" x="96" y="96">
<path fill="#96939b" d="M17 14.081c0 0.711 0.407 1.327 1 1.628v0.249c-0.166 0.023-0.335 0.035-0.508 0.035-1.063 0-2.021-0.446-2.699-1.16-0.41 0.109-0.844 0.168-1.293 0.168-2.485 0-4.5-1.791-4.5-4s2.015-4 4.5-4c2.485 0 4.5 1.791 4.5 4 0 0.865-0.309 1.665-0.834 2.32-0.107 0.232-0.166 0.489-0.166 0.761zM8 0c4.351 0 7.89 2.822 7.997 6.336-0.768-0.343-1.619-0.524-2.497-0.524-1.493 0-2.903 0.523-3.971 1.472-1.107 0.984-1.717 2.304-1.717 3.716 0 0.698 0.149 1.373 0.433 1.997-0.082 0.002-0.164 0.003-0.246 0.003-0.424 0-0.841-0.027-1.247-0.079-1.718 1.718-3.77 2.027-5.753 2.072v-0.421c1.071-0.525 2-1.48 2-2.572 0-0.152-0.012-0.302-0.034-0.448-1.809-1.192-2.966-3.012-2.966-5.052 0-3.59 3.582-6.5 8-6.5z"></path>
</svg>
<svg id="icon-bubbles2" width="18" height="16" viewBox="0 0 18 16" x="128" y="96">
<path fill="#96939b" d="M7.5 0v0c4.142 0 7.5 2.717 7.5 6.069s-3.358 6.069-7.5 6.069c-0.398 0-0.788-0.025-1.169-0.074-1.611 1.605-3.471 1.892-5.331 1.935v-0.393c1.004-0.49 1.813-1.382 1.813-2.402 0-0.142-0.011-0.282-0.032-0.419-1.696-1.113-2.781-2.812-2.781-4.717 0-3.352 3.358-6.069 7.5-6.069zM15.563 13.604c0 0.874 0.567 1.639 1.438 2.059v0.337c-1.611-0.036-3.090-0.283-4.487-1.658-0.33 0.041-0.669 0.063-1.013 0.063-1.492 0-2.866-0.402-3.963-1.079 2.261-0.008 4.395-0.732 6.013-2.042 0.816-0.66 1.459-1.435 1.913-2.302 0.481-0.92 0.724-1.9 0.724-2.913 0-0.163-0.007-0.326-0.020-0.487 1.134 0.936 1.832 2.213 1.832 3.62 0 1.633-0.94 3.089-2.41 4.043-0.018 0.117-0.027 0.237-0.027 0.359z"></path>
</svg>
<svg id="icon-bubble2" width="16" height="16" viewBox="0 0 16 16" x="160" y="96">
<path fill="#96939b" d="M8 3c-0.858 0-1.687 0.135-2.464 0.402-0.73 0.251-1.38 0.605-1.932 1.054-1.035 0.841-1.604 1.922-1.604 3.044 0 0.63 0.175 1.24 0.52 1.815 0.356 0.592 0.89 1.134 1.547 1.566 0.474 0.312 0.793 0.812 0.878 1.373 0.028 0.187 0.046 0.376 0.053 0.564 0.117-0.097 0.23-0.201 0.342-0.312 0.377-0.377 0.887-0.586 1.414-0.586 0.084 0 0.168 0.005 0.252 0.016 0.328 0.042 0.662 0.063 0.995 0.063 0.858 0 1.687-0.135 2.464-0.402 0.73-0.251 1.38-0.605 1.932-1.054 1.035-0.841 1.604-1.922 1.604-3.044s-0.57-2.203-1.604-3.044c-0.552-0.448-1.202-0.803-1.932-1.054-0.777-0.267-1.606-0.402-2.464-0.402zM8 1v0c4.418 0 8 2.91 8 6.5s-3.582 6.5-8 6.5c-0.424 0-0.841-0.027-1.247-0.079-1.718 1.718-3.77 2.027-5.753 2.072v-0.421c1.071-0.525 2-1.48 2-2.572 0-0.152-0.012-0.302-0.034-0.448-1.809-1.192-2.966-3.012-2.966-5.052 0-3.59 3.582-6.5 8-6.5z"></path>
</svg>
<svg id="icon-bubbles3" width="18" height="16" viewBox="0 0 18 16" x="192" y="96">
<path fill="#96939b" d="M17 14.081c0 0.711 0.407 1.327 1 1.628v0.249c-0.166 0.023-0.335 0.035-0.508 0.035-1.063 0-2.021-0.446-2.699-1.16-0.41 0.109-0.844 0.168-1.293 0.168-2.485 0-4.5-1.791-4.5-4s2.015-4 4.5-4c2.485 0 4.5 1.791 4.5 4 0 0.865-0.309 1.665-0.834 2.32-0.107 0.232-0.166 0.489-0.166 0.761zM3.604 3.456c-1.035 0.841-1.604 1.922-1.604 3.044 0 0.63 0.175 1.24 0.52 1.815 0.356 0.592 0.89 1.134 1.547 1.566 0.474 0.312 0.793 0.812 0.878 1.373 0.028 0.187 0.046 0.376 0.053 0.564 0.117-0.097 0.23-0.201 0.342-0.312 0.377-0.377 0.887-0.586 1.414-0.586 0.084 0 0.168 0.005 0.252 0.016 0.327 0.042 0.662 0.063 0.994 0.063v2c-0.424-0-0.84-0.027-1.246-0.079-1.718 1.718-3.77 2.027-5.753 2.072v-0.421c1.071-0.525 2-1.48 2-2.572 0-0.152-0.012-0.302-0.034-0.448-1.809-1.192-2.966-3.012-2.966-5.052 0-3.59 3.582-6.5 8-6.5 4.351 0 7.89 2.822 7.997 6.336-0.642-0.286-1.341-0.46-2.067-0.509-0.18-0.876-0.709-1.7-1.535-2.371-0.552-0.448-1.202-0.803-1.932-1.054-0.777-0.267-1.606-0.402-2.464-0.402s-1.687 0.135-2.464 0.402c-0.73 0.251-1.38 0.605-1.932 1.054z"></path>
</svg>
<svg id="icon-bubbles4" width="18" height="16" viewBox="0 0 18 16" x="224" y="96">
<path fill="#96939b" d="M7.5 2c-0.792 0-1.556 0.124-2.272 0.369-0.671 0.23-1.267 0.554-1.773 0.963-0.938 0.759-1.455 1.731-1.455 2.737 0 0.562 0.157 1.109 0.467 1.623 0.323 0.537 0.811 1.028 1.41 1.421 0.476 0.312 0.796 0.812 0.881 1.374 0.014 0.094 0.025 0.188 0.034 0.282 0.043-0.039 0.085-0.080 0.127-0.122 0.377-0.376 0.886-0.583 1.411-0.583 0.084 0 0.167 0.005 0.251 0.016 0.303 0.038 0.611 0.058 0.918 0.058 0.792 0 1.556-0.124 2.272-0.369 0.671-0.23 1.267-0.554 1.774-0.963 0.938-0.759 1.455-1.731 1.455-2.737s-0.517-1.978-1.455-2.737c-0.506-0.41-1.103-0.734-1.774-0.963-0.716-0.245-1.48-0.369-2.272-0.369zM7.5 0v0c4.142 0 7.5 2.717 7.5 6.069s-3.358 6.069-7.5 6.069c-0.398 0-0.788-0.025-1.169-0.074-1.611 1.605-3.471 1.892-5.331 1.935v-0.393c1.004-0.49 1.813-1.382 1.813-2.402 0-0.142-0.011-0.282-0.032-0.419-1.696-1.113-2.781-2.812-2.781-4.717 0-3.352 3.358-6.069 7.5-6.069zM15.563 13.604c0 0.874 0.567 1.639 1.438 2.059v0.337c-1.611-0.036-3.090-0.283-4.487-1.658-0.33 0.041-0.669 0.063-1.013 0.063-1.492 0-2.866-0.402-3.963-1.079 2.261-0.008 4.395-0.732 6.013-2.042 0.816-0.66 1.459-1.435 1.913-2.302 0.481-0.92 0.724-1.9 0.724-2.913 0-0.163-0.007-0.326-0.020-0.487 1.134 0.936 1.832 2.213 1.832 3.62 0 1.633-0.94 3.089-2.41 4.043-0.018 0.117-0.027 0.237-0.027 0.359z"></path>
</svg>
<svg id="icon-user" width="16" height="16" viewBox="0 0 16 16" x="256" y="96">
<path fill="#96939b" d="M9 11.041v-0.825c1.102-0.621 2-2.168 2-3.716 0-2.485 0-4.5-3-4.5s-3 2.015-3 4.5c0 1.548 0.898 3.095 2 3.716v0.825c-3.392 0.277-6 1.944-6 3.959h14c0-2.015-2.608-3.682-6-3.959z"></path>
</svg>
<svg id="icon-users" width="18" height="16" viewBox="0 0 18 16" x="288" y="96">
<path fill="#96939b" d="M12 12.041v-0.825c1.102-0.621 2-2.168 2-3.716 0-2.485 0-4.5-3-4.5s-3 2.015-3 4.5c0 1.548 0.898 3.095 2 3.716v0.825c-3.392 0.277-6 1.944-6 3.959h14c0-2.015-2.608-3.682-6-3.959z"></path>
<path fill="#96939b" d="M5.112 12.427c0.864-0.565 1.939-0.994 3.122-1.256-0.235-0.278-0.449-0.588-0.633-0.922-0.475-0.863-0.726-1.813-0.726-2.748 0-1.344 0-2.614 0.478-3.653 0.464-1.008 1.299-1.633 2.488-1.867-0.264-1.195-0.968-1.98-2.841-1.98-3 0-3 2.015-3 4.5 0 1.548 0.898 3.095 2 3.716v0.825c-3.392 0.277-6 1.944-6 3.959h4.359c0.227-0.202 0.478-0.393 0.753-0.573z"></path>
</svg>
<svg id="icon-user-plus" width="16" height="16" viewBox="0 0 16 16" x="320" y="96">
<path fill="#96939b" d="M6 11.5c0-2.363 1.498-4.383 3.594-5.159 0.254-0.571 0.406-1.206 0.406-1.841 0-2.485 0-4.5-3-4.5s-3 2.015-3 4.5c0 1.548 0.898 3.095 2 3.716v0.825c-3.392 0.277-6 1.944-6 3.959h6.208c-0.135-0.477-0.208-0.98-0.208-1.5z"></path>
<path fill="#96939b" d="M11.5 7c-2.485 0-4.5 2.015-4.5 4.5s2.015 4.5 4.5 4.5c2.485 0 4.5-2.015 4.5-4.5s-2.015-4.5-4.5-4.5zM14 12h-2v2h-1v-2h-2v-1h2v-2h1v2h2v1z"></path>
</svg>
<svg id="icon-user-minus" width="16" height="16" viewBox="0 0 16 16" x="352" y="96">
<path fill="#96939b" d="M6 11.5c0-2.363 1.498-4.383 3.594-5.159 0.254-0.571 0.406-1.206 0.406-1.841 0-2.485 0-4.5-3-4.5s-3 2.015-3 4.5c0 1.548 0.898 3.095 2 3.716v0.825c-3.392 0.277-6 1.944-6 3.959h6.208c-0.135-0.477-0.208-0.98-0.208-1.5z"></path>
<path fill="#96939b" d="M11.5 7c-2.485 0-4.5 2.015-4.5 4.5s2.015 4.5 4.5 4.5c2.485 0 4.5-2.015 4.5-4.5s-2.015-4.5-4.5-4.5zM14 12h-5v-1h5v1z"></path>
</svg>
<svg id="icon-user-check" width="16" height="16" viewBox="0 0 16 16" x="384" y="96">
<path fill="#96939b" d="M15 9.5l-4.5 4.5-1.5-1.5-1 1 2.5 2.5 5.5-5.5z"></path>
<path fill="#96939b" d="M7 12h5v-1.799c-1.050-0.613-2.442-1.033-4-1.16v-0.825c1.102-0.621 2-2.168 2-3.716 0-2.485 0-4.5-3-4.5s-3 2.015-3 4.5c0 1.548 0.898 3.095 2 3.716v0.825c-3.392 0.277-6 1.944-6 3.959h7v-1z"></path>
</svg>
<svg id="icon-quotes-left" width="16" height="16" viewBox="0 0 16 16" x="416" y="96">
<path fill="#96939b" d="M3.516 7c1.933 0 3.5 1.567 3.5 3.5s-1.567 3.5-3.5 3.5-3.5-1.567-3.5-3.5l-0.016-0.5c0-3.866 3.134-7 7-7v2c-1.336 0-2.591 0.52-3.536 1.464-0.182 0.182-0.348 0.375-0.497 0.578 0.179-0.028 0.362-0.043 0.548-0.043zM12.516 7c1.933 0 3.5 1.567 3.5 3.5s-1.567 3.5-3.5 3.5-3.5-1.567-3.5-3.5l-0.016-0.5c0-3.866 3.134-7 7-7v2c-1.336 0-2.591 0.52-3.536 1.464-0.182 0.182-0.348 0.375-0.497 0.578 0.179-0.028 0.362-0.043 0.549-0.043z"></path>
</svg>
<svg id="icon-quotes-right" width="16" height="16" viewBox="0 0 16 16" x="448" y="96">
<path fill="#96939b" d="M12.5 10c-1.933 0-3.5-1.567-3.5-3.5s1.567-3.5 3.5-3.5 3.5 1.567 3.5 3.5l0.016 0.5c0 3.866-3.134 7-7 7v-2c1.336 0 2.591-0.52 3.536-1.464 0.182-0.182 0.348-0.375 0.497-0.578-0.179 0.028-0.362 0.043-0.549 0.043zM3.5 10c-1.933 0-3.5-1.567-3.5-3.5s1.567-3.5 3.5-3.5 3.5 1.567 3.5 3.5l0.016 0.5c0 3.866-3.134 7-7 7v-2c1.336 0 2.591-0.52 3.536-1.464 0.182-0.182 0.348-0.375 0.497-0.578-0.179 0.028-0.362 0.043-0.549 0.043z"></path>
</svg>
<svg id="icon-hour-glass" width="16" height="16" viewBox="0 0 16 16" x="480" y="96">
<path fill="#96939b" d="M11.39 8c2.152-1.365 3.61-3.988 3.61-7 0-0.339-0.019-0.672-0.054-1h-13.891c-0.036 0.328-0.054 0.661-0.054 1 0 3.012 1.457 5.635 3.609 7-2.152 1.365-3.609 3.988-3.609 7 0 0.339 0.019 0.672 0.054 1h13.891c0.036-0.328 0.054-0.661 0.054-1 0-3.012-1.457-5.635-3.609-7zM2.5 15c0-2.921 1.253-5.397 3.5-6.214v-1.572c-2.247-0.817-3.5-3.294-3.5-6.214v0h11c0 2.921-1.253 5.397-3.5 6.214v1.572c2.247 0.817 3.5 3.294 3.5 6.214h-11zM9.682 10.462c-1.12-0.635-1.181-1.459-1.182-1.959v-1.004c0-0.5 0.059-1.327 1.184-1.963 0.602-0.349 1.122-0.88 1.516-1.537h-6.4c0.395 0.657 0.916 1.188 1.518 1.538 1.12 0.635 1.181 1.459 1.182 1.959v1.004c0 0.5-0.059 1.327-1.184 1.963-1.135 0.659-1.98 1.964-2.236 3.537h7.839c-0.256-1.574-1.102-2.879-2.238-3.538z"></path>
</svg>
<svg id="icon-spinner" width="16" height="16" viewBox="0 0 16 16" x="0" y="128">
<path fill="#96939b" d="M6 2c0-1.105 0.895-2 2-2s2 0.895 2 2c0 1.105-0.895 2-2 2s-2-0.895-2-2zM10.243 3.757c0-1.105 0.895-2 2-2s2 0.895 2 2c0 1.105-0.895 2-2 2s-2-0.895-2-2zM13 8c0-0.552 0.448-1 1-1s1 0.448 1 1c0 0.552-0.448 1-1 1s-1-0.448-1-1zM11.243 12.243c0-0.552 0.448-1 1-1s1 0.448 1 1c0 0.552-0.448 1-1 1s-1-0.448-1-1zM7 14c0 0 0 0 0 0 0-0.552 0.448-1 1-1s1 0.448 1 1c0 0 0 0 0 0 0 0.552-0.448 1-1 1s-1-0.448-1-1zM2.757 12.243c0 0 0 0 0 0 0-0.552 0.448-1 1-1s1 0.448 1 1c0 0 0 0 0 0 0 0.552-0.448 1-1 1s-1-0.448-1-1zM2.257 3.757c0 0 0 0 0 0 0-0.828 0.672-1.5 1.5-1.5s1.5 0.672 1.5 1.5c0 0 0 0 0 0 0 0.828-0.672 1.5-1.5 1.5s-1.5-0.672-1.5-1.5zM0.875 8c0-0.621 0.504-1.125 1.125-1.125s1.125 0.504 1.125 1.125c0 0.621-0.504 1.125-1.125 1.125s-1.125-0.504-1.125-1.125z"></path>
</svg>
<svg id="icon-spinner2" width="16" height="16" viewBox="0 0 16 16" x="32" y="128">
<path fill="#96939b" d="M16 8c-0.020-1.045-0.247-2.086-0.665-3.038-0.417-0.953-1.023-1.817-1.766-2.53s-1.624-1.278-2.578-1.651c-0.953-0.374-1.978-0.552-2.991-0.531-1.013 0.020-2.021 0.24-2.943 0.646-0.923 0.405-1.758 0.992-2.449 1.712s-1.237 1.574-1.597 2.497c-0.361 0.923-0.533 1.914-0.512 2.895 0.020 0.981 0.234 1.955 0.627 2.847 0.392 0.892 0.961 1.7 1.658 2.368s1.523 1.195 2.416 1.543c0.892 0.348 1.851 0.514 2.799 0.493 0.949-0.020 1.89-0.227 2.751-0.608 0.862-0.379 1.642-0.929 2.287-1.604s1.154-1.472 1.488-2.335c0.204-0.523 0.342-1.069 0.415-1.622 0.019 0.001 0.039 0.002 0.059 0.002 0.552 0 1-0.448 1-1 0-0.028-0.001-0.056-0.004-0.083h0.004zM14.411 10.655c-0.367 0.831-0.898 1.584-1.55 2.206s-1.422 1.112-2.254 1.434c-0.832 0.323-1.723 0.476-2.608 0.454-0.884-0.020-1.759-0.215-2.56-0.57-0.801-0.354-1.526-0.867-2.125-1.495s-1.071-1.371-1.38-2.173c-0.31-0.801-0.457-1.66-0.435-2.512s0.208-1.694 0.551-2.464c0.342-0.77 0.836-1.468 1.441-2.044s1.321-1.029 2.092-1.326c0.771-0.298 1.596-0.438 2.416-0.416s1.629 0.202 2.368 0.532c0.74 0.329 1.41 0.805 1.963 1.387s0.988 1.27 1.272 2.011c0.285 0.74 0.418 1.532 0.397 2.32h0.004c-0.002 0.027-0.004 0.055-0.004 0.083 0 0.516 0.39 0.94 0.892 0.994-0.097 0.544-0.258 1.075-0.481 1.578z"></path>
</svg>
<svg id="icon-spinner3" width="16" height="16" viewBox="0 0 16 16" x="64" y="128">
<path fill="#96939b" d="M8 4.736c-0.515 0-0.933-0.418-0.933-0.933v-2.798c0-0.515 0.418-0.933 0.933-0.933s0.933 0.418 0.933 0.933v2.798c0 0.515-0.418 0.933-0.933 0.933z"></path>
<path fill="#96939b" d="M8 15.577c-0.322 0-0.583-0.261-0.583-0.583v-2.798c0-0.322 0.261-0.583 0.583-0.583s0.583 0.261 0.583 0.583v2.798c0 0.322-0.261 0.583-0.583 0.583z"></path>
<path fill="#96939b" d="M5.902 5.24c-0.302 0-0.596-0.157-0.758-0.437l-1.399-2.423c-0.241-0.418-0.098-0.953 0.32-1.194s0.953-0.098 1.194 0.32l1.399 2.423c0.241 0.418 0.098 0.953-0.32 1.194-0.138 0.079-0.288 0.117-0.436 0.117z"></path>
<path fill="#96939b" d="M11.498 14.582c-0.181 0-0.358-0.094-0.455-0.262l-1.399-2.423c-0.145-0.251-0.059-0.572 0.192-0.717s0.572-0.059 0.717 0.192l1.399 2.423c0.145 0.251 0.059 0.572-0.192 0.717-0.083 0.048-0.173 0.070-0.262 0.070z"></path>
<path fill="#96939b" d="M4.365 6.718c-0.138 0-0.279-0.035-0.407-0.109l-2.423-1.399c-0.39-0.225-0.524-0.724-0.299-1.115s0.724-0.524 1.115-0.299l2.423 1.399c0.39 0.225 0.524 0.724 0.299 1.115-0.151 0.262-0.425 0.408-0.707 0.408z"></path>
<path fill="#96939b" d="M14.057 11.964c-0.079 0-0.159-0.020-0.233-0.063l-2.423-1.399c-0.223-0.129-0.299-0.414-0.171-0.637s0.414-0.299 0.637-0.171l2.423 1.399c0.223 0.129 0.299 0.414 0.171 0.637-0.086 0.15-0.243 0.233-0.404 0.233z"></path>
<path fill="#96939b" d="M3.803 8.758h-2.798c-0.418 0-0.758-0.339-0.758-0.758s0.339-0.758 0.758-0.758h2.798c0.419 0 0.758 0.339 0.758 0.758s-0.339 0.758-0.758 0.758z"></path>
<path fill="#96939b" d="M14.995 8.466c-0 0 0 0 0 0h-2.798c-0.258-0-0.466-0.209-0.466-0.466s0.209-0.466 0.466-0.466c0 0 0 0 0 0h2.798c0.258 0 0.466 0.209 0.466 0.466s-0.209 0.466-0.466 0.466z"></path>
<path fill="#96939b" d="M1.943 12.197c-0.242 0-0.477-0.125-0.606-0.35-0.193-0.335-0.079-0.762 0.256-0.955l2.423-1.399c0.335-0.193 0.762-0.079 0.955 0.256s0.079 0.762-0.256 0.955l-2.423 1.399c-0.11 0.064-0.23 0.094-0.349 0.094z"></path>
<path fill="#96939b" d="M11.635 6.368c-0.161 0-0.318-0.084-0.404-0.233-0.129-0.223-0.052-0.508 0.171-0.637l2.423-1.399c0.223-0.129 0.508-0.052 0.637 0.171s0.052 0.508-0.171 0.637l-2.423 1.399c-0.073 0.042-0.154 0.063-0.233 0.063z"></path>
<path fill="#96939b" d="M4.502 14.699c-0.109 0-0.219-0.028-0.32-0.086-0.307-0.177-0.412-0.569-0.235-0.876l1.399-2.423c0.177-0.307 0.569-0.412 0.876-0.235s0.412 0.569 0.235 0.876l-1.399 2.423c-0.119 0.206-0.334 0.321-0.556 0.321z"></path>
<path fill="#96939b" d="M10.098 4.832c-0.079 0-0.159-0.020-0.233-0.063-0.223-0.129-0.299-0.414-0.171-0.637l1.399-2.423c0.129-0.223 0.414-0.299 0.637-0.171s0.299 0.414 0.171 0.637l-1.399 2.423c-0.086 0.15-0.243 0.233-0.404 0.233z"></path>
</svg>
<svg id="icon-spinner6" width="16" height="16" viewBox="0 0 16 16" x="96" y="128">
<path fill="#96939b" d="M6 2c0-1.105 0.895-2 2-2s2 0.895 2 2c0 1.105-0.895 2-2 2s-2-0.895-2-2zM12.359 8c0 0 0 0 0 0 0-0.906 0.735-1.641 1.641-1.641s1.641 0.735 1.641 1.641c0 0 0 0 0 0 0 0.906-0.735 1.641-1.641 1.641s-1.641-0.735-1.641-1.641zM10.757 12.243c0-0.821 0.665-1.486 1.486-1.486s1.486 0.665 1.486 1.486c0 0.821-0.665 1.486-1.486 1.486s-1.486-0.665-1.486-1.486zM6.654 14c0-0.743 0.603-1.346 1.346-1.346s1.346 0.603 1.346 1.346c0 0.743-0.603 1.346-1.346 1.346s-1.346-0.603-1.346-1.346zM2.538 12.243c0-0.673 0.546-1.219 1.219-1.219s1.219 0.546 1.219 1.219c0 0.673-0.546 1.219-1.219 1.219s-1.219-0.546-1.219-1.219zM0.896 8c0-0.61 0.494-1.104 1.104-1.104s1.104 0.494 1.104 1.104c0 0.61-0.494 1.104-1.104 1.104s-1.104-0.494-1.104-1.104zM2.757 3.757c0 0 0 0 0 0 0-0.552 0.448-1 1-1s1 0.448 1 1c0 0 0 0 0 0 0 0.552-0.448 1-1 1s-1-0.448-1-1zM14.054 3.757c0 1-0.811 1.811-1.812 1.811s-1.812-0.811-1.812-1.811c0-1.001 0.811-1.811 1.812-1.811s1.812 0.811 1.812 1.811z"></path>
</svg>
<svg id="icon-spinner7" width="16" height="16" viewBox="0 0 16 16" x="128" y="128">
<path fill="#96939b" d="M6.5 14.5c0-0.828 0.672-1.5 1.5-1.5s1.5 0.672 1.5 1.5c0 0.828-0.672 1.5-1.5 1.5s-1.5-0.672-1.5-1.5zM0 8c0-0.828 0.672-1.5 1.5-1.5s1.5 0.672 1.5 1.5c0 0.828-0.672 1.5-1.5 1.5s-1.5-0.672-1.5-1.5zM13 8c0-0.828 0.672-1.5 1.5-1.5s1.5 0.672 1.5 1.5c0 0.828-0.672 1.5-1.5 1.5s-1.5-0.672-1.5-1.5zM1.904 3.404c0-0.828 0.672-1.5 1.5-1.5s1.5 0.672 1.5 1.5c0 0.828-0.672 1.5-1.5 1.5s-1.5-0.672-1.5-1.5zM11.096 12.596c0-0.828 0.672-1.5 1.5-1.5s1.5 0.672 1.5 1.5c0 0.828-0.672 1.5-1.5 1.5s-1.5-0.672-1.5-1.5zM1.904 12.596c0-0.828 0.672-1.5 1.5-1.5s1.5 0.672 1.5 1.5c0 0.828-0.672 1.5-1.5 1.5s-1.5-0.672-1.5-1.5zM11.096 3.404c0-0.828 0.672-1.5 1.5-1.5s1.5 0.672 1.5 1.5c0 0.828-0.672 1.5-1.5 1.5s-1.5-0.672-1.5-1.5z"></path>
</svg>
<svg id="icon-spinner11" width="16" height="16" viewBox="0 0 16 16" x="160" y="128">
<path fill="#96939b" d="M16 6h-6l2.243-2.243c-1.133-1.133-2.64-1.757-4.243-1.757s-3.109 0.624-4.243 1.757c-1.133 1.133-1.757 2.64-1.757 4.243s0.624 3.109 1.757 4.243c1.133 1.133 2.64 1.757 4.243 1.757s3.109-0.624 4.243-1.757c0.095-0.095 0.185-0.192 0.273-0.292l1.505 1.317c-1.466 1.674-3.62 2.732-6.020 2.732-4.418 0-8-3.582-8-8s3.582-8 8-8c2.209 0 4.209 0.896 5.656 2.344l2.343-2.344v6z"></path>
</svg>
<svg id="icon-binoculars" width="16" height="16" viewBox="0 0 16 16" x="192" y="128">
<path fill="#96939b" d="M1 0h6v1h-6zM9 0h6v1h-6zM14.875 5h-0.875v-4h-4v4h-4v-4h-4v4h-0.875c-0.619 0-1.125 0.506-1.125 1.125v8.75c0 0.619 0.506 1.125 1.125 1.125h4.75c0.619 0 1.125-0.506 1.125-1.125v-5.875h2v5.875c0 0.619 0.506 1.125 1.125 1.125h4.75c0.619 0 1.125-0.506 1.125-1.125v-8.75c0-0.619-0.506-1.125-1.125-1.125zM5.438 15h-3.875c-0.309 0-0.563-0.225-0.563-0.5s0.253-0.5 0.563-0.5h3.875c0.309 0 0.563 0.225 0.563 0.5s-0.253 0.5-0.563 0.5zM8.5 8h-1c-0.275 0-0.5-0.225-0.5-0.5s0.225-0.5 0.5-0.5h1c0.275 0 0.5 0.225 0.5 0.5s-0.225 0.5-0.5 0.5zM14.438 15h-3.875c-0.309 0-0.563-0.225-0.563-0.5s0.253-0.5 0.563-0.5h3.875c0.309 0 0.563 0.225 0.563 0.5s-0.253 0.5-0.563 0.5z"></path>
</svg>
<svg id="icon-search" width="16" height="16" viewBox="0 0 16 16" x="224" y="128">
<path fill="#96939b" d="M15.504 13.616l-3.79-3.223c-0.392-0.353-0.811-0.514-1.149-0.499 0.895-1.048 1.435-2.407 1.435-3.893 0-3.314-2.686-6-6-6s-6 2.686-6 6 2.686 6 6 6c1.486 0 2.845-0.54 3.893-1.435-0.016 0.338 0.146 0.757 0.499 1.149l3.223 3.79c0.552 0.613 1.453 0.665 2.003 0.115s0.498-1.452-0.115-2.003zM6 10c-2.209 0-4-1.791-4-4s1.791-4 4-4 4 1.791 4 4-1.791 4-4 4z"></path>
</svg>
<svg id="icon-zoom-in" width="16" height="16" viewBox="0 0 16 16" x="256" y="128">
<path fill="#96939b" d="M15.504 13.616l-3.79-3.223c-0.392-0.353-0.811-0.514-1.149-0.499 0.895-1.048 1.435-2.407 1.435-3.893 0-3.314-2.686-6-6-6s-6 2.686-6 6 2.686 6 6 6c1.486 0 2.845-0.54 3.893-1.435-0.016 0.338 0.146 0.757 0.499 1.149l3.223 3.79c0.552 0.613 1.453 0.665 2.003 0.115s0.498-1.452-0.115-2.003zM6 10c-2.209 0-4-1.791-4-4s1.791-4 4-4 4 1.791 4 4-1.791 4-4 4zM7 3h-2v2h-2v2h2v2h2v-2h2v-2h-2z"></path>
</svg>
<svg id="icon-zoom-out" width="16" height="16" viewBox="0 0 16 16" x="288" y="128">
<path fill="#96939b" d="M15.504 13.616l-3.79-3.223c-0.392-0.353-0.811-0.514-1.149-0.499 0.895-1.048 1.435-2.407 1.435-3.893 0-3.314-2.686-6-6-6s-6 2.686-6 6 2.686 6 6 6c1.486 0 2.845-0.54 3.893-1.435-0.016 0.338 0.146 0.757 0.499 1.149l3.223 3.79c0.552 0.613 1.453 0.665 2.003 0.115s0.498-1.452-0.115-2.003zM6 10c-2.209 0-4-1.791-4-4s1.791-4 4-4 4 1.791 4 4-1.791 4-4 4zM3 5h6v2h-6z"></path>
</svg>
<svg id="icon-enlarge" width="16" height="16" viewBox="0 0 16 16" x="320" y="128">
<path fill="#96939b" d="M16 0h-6.5l2.5 2.5-3 3 1.5 1.5 3-3 2.5 2.5z"></path>
<path fill="#96939b" d="M16 16v-6.5l-2.5 2.5-3-3-1.5 1.5 3 3-2.5 2.5z"></path>
<path fill="#96939b" d="M0 16h6.5l-2.5-2.5 3-3-1.5-1.5-3 3-2.5-2.5z"></path>
<path fill="#96939b" d="M0 0v6.5l2.5-2.5 3 3 1.5-1.5-3-3 2.5-2.5z"></path>
</svg>
<svg id="icon-shrink" width="16" height="16" viewBox="0 0 16 16" x="352" y="128">
<path fill="#96939b" d="M9 7h6.5l-2.5-2.5 3-3-1.5-1.5-3 3-2.5-2.5z"></path>
<path fill="#96939b" d="M9 9v6.5l2.5-2.5 3 3 1.5-1.5-3-3 2.5-2.5z"></path>
<path fill="#96939b" d="M7 9h-6.5l2.5 2.5-3 3 1.5 1.5 3-3 2.5 2.5z"></path>
<path fill="#96939b" d="M7 7v-6.5l-2.5 2.5-3-3-1.5 1.5 3 3-2.5 2.5z"></path>
</svg>
<svg id="icon-enlarge2" width="16" height="16" viewBox="0 0 16 16" x="384" y="128">
<path fill="#96939b" d="M16 0v6.5l-2.5-2.5-3 3-1.5-1.5 3-3-2.5-2.5zM7 10.5l-3 3 2.5 2.5h-6.5v-6.5l2.5 2.5 3-3z"></path>
</svg>
<svg id="icon-shrink2" width="16" height="16" viewBox="0 0 16 16" x="416" y="128">
<path fill="#96939b" d="M7 9v6.5l-2.5-2.5-3 3-1.5-1.5 3-3-2.5-2.5zM16 1.5l-3 3 2.5 2.5h-6.5v-6.5l2.5 2.5 3-3z"></path>
</svg>
<svg id="icon-lock" width="16" height="16" viewBox="0 0 16 16" x="448" y="128">
<path fill="#96939b" d="M9.25 7h-0.25v-3c0-1.654-1.346-3-3-3h-2c-1.654 0-3 1.346-3 3v3h-0.25c-0.412 0-0.75 0.338-0.75 0.75v7.5c0 0.412 0.338 0.75 0.75 0.75h8.5c0.412 0 0.75-0.338 0.75-0.75v-7.5c0-0.412-0.338-0.75-0.75-0.75zM3 4c0-0.551 0.449-1 1-1h2c0.551 0 1 0.449 1 1v3h-4v-3z"></path>
</svg>
<svg id="icon-unlocked" width="16" height="16" viewBox="0 0 16 16" x="480" y="128">
<path fill="#96939b" d="M12 1c1.654 0 3 1.346 3 3v3h-2v-3c0-0.551-0.449-1-1-1h-2c-0.551 0-1 0.449-1 1v3h0.25c0.412 0 0.75 0.338 0.75 0.75v7.5c0 0.412-0.338 0.75-0.75 0.75h-8.5c-0.412 0-0.75-0.338-0.75-0.75v-7.5c0-0.412 0.338-0.75 0.75-0.75h6.25v-3c0-1.654 1.346-3 3-3h2z"></path>
</svg>
<svg id="icon-wrench" width="16" height="16" viewBox="0 0 16 16" x="0" y="160">
<path fill="#96939b" d="M15.671 12.779l-7.196-6.168c0.335-0.63 0.525-1.348 0.525-2.111 0-2.485-2.015-4.5-4.5-4.5-0.455 0-0.893 0.068-1.307 0.193l2.6 2.6c0.389 0.389 0.389 1.025 0 1.414l-1.586 1.586c-0.389 0.389-1.025 0.389-1.414 0l-2.6-2.6c-0.125 0.414-0.193 0.852-0.193 1.307 0 2.485 2.015 4.5 4.5 4.5 0.763 0 1.482-0.19 2.111-0.525l6.168 7.196c0.358 0.418 0.969 0.441 1.358 0.052l1.586-1.586c0.389-0.389 0.365-1-0.052-1.358z"></path>
</svg>
<svg id="icon-equalizer" width="16" height="16" viewBox="0 0 16 16" x="32" y="160">
<path fill="#96939b" d="M7 2v-0.25c0-0.413-0.338-0.75-0.75-0.75h-2.5c-0.413 0-0.75 0.337-0.75 0.75v0.25h-3v2h3v0.25c0 0.412 0.337 0.75 0.75 0.75h2.5c0.412 0 0.75-0.338 0.75-0.75v-0.25h9v-2h-9zM4 4v-2h2v2h-2zM13 6.75c0-0.412-0.338-0.75-0.75-0.75h-2.5c-0.412 0-0.75 0.338-0.75 0.75v0.25h-9v2h9v0.25c0 0.412 0.338 0.75 0.75 0.75h2.5c0.412 0 0.75-0.338 0.75-0.75v-0.25h3v-2h-3v-0.25zM10 9v-2h2v2h-2zM7 11.75c0-0.412-0.338-0.75-0.75-0.75h-2.5c-0.413 0-0.75 0.338-0.75 0.75v0.25h-3v2h3v0.25c0 0.412 0.337 0.75 0.75 0.75h2.5c0.412 0 0.75-0.338 0.75-0.75v-0.25h9v-2h-9v-0.25zM4 14v-2h2v2h-2z"></path>
</svg>
<svg id="icon-equalizer2" width="16" height="16" viewBox="0 0 16 16" x="64" y="160">
<path fill="#96939b" d="M14 7h0.25c0.412 0 0.75-0.338 0.75-0.75v-2.5c0-0.413-0.338-0.75-0.75-0.75h-0.25v-3h-2v3h-0.25c-0.412 0-0.75 0.337-0.75 0.75v2.5c0 0.412 0.338 0.75 0.75 0.75h0.25v9h2v-9zM12 4h2v2h-2v-2zM9.25 13c0.412 0 0.75-0.338 0.75-0.75v-2.5c0-0.412-0.338-0.75-0.75-0.75h-0.25v-9h-2v9h-0.25c-0.412 0-0.75 0.338-0.75 0.75v2.5c0 0.412 0.338 0.75 0.75 0.75h0.25v3h2v-3h0.25zM7 10h2v2h-2v-2zM4.25 7c0.412 0 0.75-0.338 0.75-0.75v-2.5c0-0.413-0.338-0.75-0.75-0.75h-0.25v-3h-2v3h-0.25c-0.413 0-0.75 0.337-0.75 0.75v2.5c0 0.412 0.337 0.75 0.75 0.75h0.25v9h2v-9h0.25zM2 4h2v2h-2v-2z"></path>
</svg>
<svg id="icon-cog" width="16" height="16" viewBox="0 0 16 16" x="96" y="160">
<path fill="#96939b" d="M14.59 9.535c-0.839-1.454-0.335-3.317 1.127-4.164l-1.572-2.723c-0.449 0.263-0.972 0.414-1.529 0.414-1.68 0-3.042-1.371-3.042-3.062h-3.145c0.004 0.522-0.126 1.051-0.406 1.535-0.839 1.454-2.706 1.948-4.17 1.106l-1.572 2.723c0.453 0.257 0.845 0.634 1.123 1.117 0.838 1.452 0.336 3.311-1.12 4.16l1.572 2.723c0.448-0.261 0.967-0.41 1.522-0.41 1.675 0 3.033 1.362 3.042 3.046h3.145c-0.001-0.517 0.129-1.040 0.406-1.519 0.838-1.452 2.7-1.947 4.163-1.11l1.572-2.723c-0.45-0.257-0.839-0.633-1.116-1.113zM8 11.24c-1.789 0-3.24-1.45-3.24-3.24s1.45-3.24 3.24-3.24c1.789 0 3.24 1.45 3.24 3.24s-1.45 3.24-3.24 3.24z"></path>
</svg>
<svg id="icon-pie-chart" width="16" height="16" viewBox="0 0 16 16" x="128" y="160">
<path fill="#96939b" d="M7 9v-7c-3.866 0-7 3.134-7 7s3.134 7 7 7 7-3.134 7-7c0-1.126-0.266-2.189-0.738-3.131l-6.262 3.131zM14.262 3.869c-1.149-2.294-3.521-3.869-6.262-3.869v7l6.262-3.131z"></path>
</svg>
<svg id="icon-stats-dots" width="16" height="16" viewBox="0 0 16 16" x="160" y="160">
<path fill="#96939b" d="M2 14h14v2h-16v-16h2zM4.5 13c-0.828 0-1.5-0.672-1.5-1.5s0.672-1.5 1.5-1.5c0.044 0 0.088 0.002 0.131 0.006l1.612-2.687c-0.154-0.235-0.243-0.517-0.243-0.819 0-0.828 0.672-1.5 1.5-1.5s1.5 0.672 1.5 1.5c0 0.302-0.090 0.583-0.243 0.819l1.612 2.687c0.043-0.004 0.087-0.006 0.131-0.006 0.033 0 0.066 0.001 0.099 0.004l2.662-4.658c-0.165-0.241-0.261-0.532-0.261-0.845 0-0.828 0.672-1.5 1.5-1.5s1.5 0.672 1.5 1.5c0 0.828-0.672 1.5-1.5 1.5-0.033 0-0.066-0.001-0.099-0.004l-2.662 4.658c0.165 0.241 0.261 0.532 0.261 0.845 0 0.828-0.672 1.5-1.5 1.5s-1.5-0.672-1.5-1.5c0-0.302 0.090-0.583 0.243-0.819l-1.612-2.687c-0.043 0.004-0.087 0.006-0.131 0.006s-0.088-0.002-0.131-0.006l-1.612 2.687c0.154 0.235 0.243 0.517 0.243 0.819 0 0.828-0.672 1.5-1.5 1.5z"></path>
</svg>
<svg id="icon-stats-bars" width="16" height="16" viewBox="0 0 16 16" x="192" y="160">
<path fill="#96939b" d="M0 13h16v2h-16zM2 9h2v3h-2zM5 5h2v7h-2zM8 8h2v4h-2zM11 2h2v10h-2z"></path>
</svg>
<svg id="icon-bin" width="16" height="16" viewBox="0 0 16 16" x="224" y="160">
<path fill="#96939b" d="M2 5v10c0 0.55 0.45 1 1 1h9c0.55 0 1-0.45 1-1v-10h-11zM5 14h-1v-7h1v7zM7 14h-1v-7h1v7zM9 14h-1v-7h1v7zM11 14h-1v-7h1v7z"></path>
<path fill="#96939b" d="M13.25 2h-3.25v-1.25c0-0.412-0.338-0.75-0.75-0.75h-3.5c-0.412 0-0.75 0.338-0.75 0.75v1.25h-3.25c-0.413 0-0.75 0.337-0.75 0.75v1.25h13v-1.25c0-0.413-0.338-0.75-0.75-0.75zM9 2h-3v-0.987h3v0.987z"></path>
</svg>
<svg id="icon-list-numbered" width="16" height="16" viewBox="0 0 16 16" x="256" y="160">
<path fill="#96939b" d="M6 13h10v2h-10zM6 7h10v2h-10zM6 1h10v2h-10zM3 0v4h-1v-3h-1v-1zM2 8.219v0.781h2v1h-3v-2.281l2-0.938v-0.781h-2v-1h3v2.281zM4 11v5h-3v-1h2v-1h-2v-1h2v-1h-2v-1z"></path>
</svg>
<svg id="icon-list" width="16" height="16" viewBox="0 0 16 16" x="288" y="160">
<path fill="#96939b" d="M0 0h4v4h-4zM6 1h10v2h-10zM0 6h4v4h-4zM6 7h10v2h-10zM0 12h4v4h-4zM6 13h10v2h-10z"></path>
</svg>
<svg id="icon-list2" width="16" height="16" viewBox="0 0 16 16" x="320" y="160">
<path fill="#96939b" d="M6 1h10v2h-10v-2zM6 7h10v2h-10v-2zM6 13h10v2h-10v-2zM0 2c0-1.105 0.895-2 2-2s2 0.895 2 2c0 1.105-0.895 2-2 2s-2-0.895-2-2zM0 8c0-1.105 0.895-2 2-2s2 0.895 2 2c0 1.105-0.895 2-2 2s-2-0.895-2-2zM0 14c0-1.105 0.895-2 2-2s2 0.895 2 2c0 1.105-0.895 2-2 2s-2-0.895-2-2z"></path>
</svg>
<svg id="icon-menu" width="16" height="16" viewBox="0 0 16 16" x="352" y="160">
<path fill="#96939b" d="M1 3h14v3h-14zM1 7h14v3h-14zM1 11h14v3h-14z"></path>
</svg>
<svg id="icon-menu2" width="22" height="16" viewBox="0 0 22 16" x="384" y="160">
<path fill="#96939b" d="M0 3h14v3h-14v-3zM0 7h14v3h-14v-3zM0 11h14v3h-14v-3z"></path>
<path fill="#96939b" d="M15.5 9l3 3 3-3z"></path>
<path fill="#96939b" d="M21.5 8l-3-3-3 3z"></path>
</svg>
<svg id="icon-menu3" width="22" height="16" viewBox="0 0 22 16" x="416" y="160">
<path fill="#96939b" d="M0 3h14v3h-14v-3zM0 7h14v3h-14v-3zM0 11h14v3h-14v-3z"></path>
<path fill="#96939b" d="M15.5 7l3 3 3-3z"></path>
</svg>
<svg id="icon-menu4" width="22" height="16" viewBox="0 0 22 16" x="448" y="160">
<path fill="#96939b" d="M0 3h14v3h-14v-3zM0 7h14v3h-14v-3zM0 11h14v3h-14v-3z"></path>
<path fill="#96939b" d="M15.5 10l3-3 3 3z"></path>
</svg>
<svg id="icon-download2" width="16" height="16" viewBox="0 0 16 16" x="0" y="192">
<path fill="#96939b" d="M14 8h-2.5l-3.5 3.5-3.5-3.5h-2.5l-2 4v1h16v-1l-2-4zM0 14h16v1h-16v-1zM9 5v-4h-2v4h-3.5l4.5 4.5 4.5-4.5h-3.5z"></path>
</svg>
<svg id="icon-upload2" width="16" height="16" viewBox="0 0 16 16" x="32" y="192">
<path fill="#96939b" d="M0 14h16v1h-16zM16 12v1h-16v-1l2-4h4v2h4v-2h4zM3.5 5l4.5-4.5 4.5 4.5h-3.5v4h-2v-4z"></path>
</svg>
<svg id="icon-download3" width="16" height="16" viewBox="0 0 16 16" x="64" y="192">
<path fill="#96939b" d="M11.5 7l-4 4-4-4h2.5v-6h3v6zM7.5 11h-7.5v4h15v-4h-7.5zM14 13h-2v-1h2v1z"></path>
</svg>
<svg id="icon-upload3" width="16" height="16" viewBox="0 0 16 16" x="96" y="192">
<path fill="#96939b" d="M7.5 11h-7.5v4h15v-4h-7.5zM14 13h-2v-1h2v1zM3.5 5l4-4 4 4h-2.5v5h-3v-5z"></path>
</svg>
<svg id="icon-sphere" width="16" height="16" viewBox="0 0 16 16" x="128" y="192">
<path fill="#96939b" d="M7.5 1c-4.142 0-7.5 3.358-7.5 7.5s3.358 7.5 7.5 7.5c4.142 0 7.5-3.358 7.5-7.5s-3.358-7.5-7.5-7.5zM11.744 11c0.134-0.632 0.219-1.303 0.246-2h1.991c-0.052 0.691-0.213 1.361-0.479 2h-1.758zM3.256 6c-0.134 0.632-0.219 1.303-0.246 2h-1.991c0.052-0.691 0.213-1.361 0.479-2h1.758zM10.719 6c0.15 0.64 0.241 1.31 0.27 2h-2.989v-2h2.719zM8 5v-2.927c0.228 0.066 0.454 0.178 0.675 0.334 0.415 0.293 0.813 0.744 1.149 1.304 0.233 0.388 0.434 0.819 0.601 1.289h-2.426zM5.176 3.711c0.336-0.561 0.734-1.012 1.149-1.304 0.222-0.156 0.447-0.268 0.675-0.334v2.927h-2.426c0.168-0.47 0.369-0.901 0.601-1.289zM7 6v2h-2.989c0.029-0.69 0.12-1.36 0.27-2h2.719zM1.498 11c-0.266-0.639-0.427-1.309-0.479-2h1.991c0.028 0.697 0.112 1.368 0.246 2h-1.758zM4.011 9h2.989v2h-2.719c-0.15-0.64-0.241-1.31-0.27-2zM7 12v2.927c-0.228-0.066-0.454-0.178-0.675-0.334-0.415-0.293-0.813-0.744-1.149-1.304-0.233-0.388-0.434-0.819-0.602-1.289h2.426zM9.825 13.289c-0.336 0.561-0.734 1.012-1.149 1.304-0.222 0.156-0.447 0.268-0.675 0.334v-2.927h2.426c-0.168 0.47-0.369 0.901-0.602 1.289zM8 11v-2h2.989c-0.029 0.69-0.12 1.36-0.27 2h-2.719zM11.99 8c-0.028-0.697-0.112-1.368-0.246-2h1.758c0.267 0.639 0.427 1.309 0.479 2h-1.991zM12.979 5h-1.498c-0.291-0.918-0.693-1.723-1.177-2.366 0.665 0.318 1.267 0.744 1.792 1.27 0.336 0.336 0.631 0.702 0.883 1.096zM2.904 3.904c0.526-0.526 1.128-0.952 1.792-1.27-0.483 0.643-0.886 1.448-1.177 2.366h-1.498c0.252-0.394 0.547-0.761 0.883-1.096zM2.021 12h1.498c0.291 0.918 0.693 1.723 1.177 2.366-0.665-0.318-1.267-0.744-1.792-1.27-0.336-0.336-0.631-0.702-0.883-1.096zM12.096 13.096c-0.526 0.526-1.128 0.952-1.792 1.27 0.483-0.643 0.886-1.448 1.177-2.366h1.498c-0.252 0.394-0.547 0.761-0.883 1.096z"></path>
</svg>
<svg id="icon-earth" width="16" height="16" viewBox="0 0 16 16" x="160" y="192">
<path fill="#96939b" d="M8 0c-4.418 0-8 3.582-8 8s3.582 8 8 8 8-3.582 8-8-3.582-8-8-8zM8 15c-0.984 0-1.92-0.203-2.769-0.57l3.643-4.098c0.081-0.092 0.126-0.21 0.126-0.332v-1.5c0-0.276-0.224-0.5-0.5-0.5-1.765 0-3.628-1.835-3.646-1.854-0.094-0.094-0.221-0.146-0.354-0.146h-2c-0.276 0-0.5 0.224-0.5 0.5v3c0 0.189 0.107 0.363 0.276 0.447l1.724 0.862v2.936c-1.813-1.265-3-3.366-3-5.745 0-1.074 0.242-2.091 0.674-3h1.826c0.133 0 0.26-0.053 0.354-0.146l2-2c0.094-0.094 0.146-0.221 0.146-0.354v-1.21c0.634-0.189 1.305-0.29 2-0.29 1.1 0 2.141 0.254 3.067 0.706-0.065 0.055-0.128 0.112-0.188 0.172-0.567 0.567-0.879 1.32-0.879 2.121s0.312 1.555 0.879 2.121c0.569 0.569 1.332 0.879 2.119 0.879 0.049 0 0.099-0.001 0.149-0.004 0.216 0.809 0.605 2.917-0.131 5.818-0.007 0.027-0.011 0.055-0.013 0.082-1.271 1.298-3.042 2.104-5.002 2.104z"></path>
</svg>
<svg id="icon-link" width="16" height="16" viewBox="0 0 16 16" x="192" y="192">
<path fill="#96939b" d="M6.879 9.934c-0.208 0-0.416-0.079-0.575-0.238-1.486-1.486-1.486-3.905 0-5.392l3-3c0.72-0.72 1.678-1.117 2.696-1.117s1.976 0.397 2.696 1.117c1.486 1.487 1.486 3.905 0 5.392l-1.371 1.371c-0.317 0.317-0.832 0.317-1.149 0s-0.317-0.832 0-1.149l1.371-1.371c0.853-0.853 0.853-2.241 0-3.094-0.413-0.413-0.963-0.641-1.547-0.641s-1.134 0.228-1.547 0.641l-3 3c-0.853 0.853-0.853 2.241 0 3.094 0.317 0.317 0.317 0.832 0 1.149-0.159 0.159-0.367 0.238-0.575 0.238z"></path>
<path fill="#96939b" d="M4 15.813c-1.018 0-1.976-0.397-2.696-1.117-1.486-1.486-1.486-3.905 0-5.392l1.371-1.371c0.317-0.317 0.832-0.317 1.149 0s0.317 0.832 0 1.149l-1.371 1.371c-0.853 0.853-0.853 2.241 0 3.094 0.413 0.413 0.962 0.641 1.547 0.641s1.134-0.228 1.547-0.641l3-3c0.853-0.853 0.853-2.241 0-3.094-0.317-0.317-0.317-0.832 0-1.149s0.832-0.317 1.149 0c1.486 1.486 1.486 3.905 0 5.392l-3 3c-0.72 0.72-1.678 1.117-2.696 1.117z"></path>
</svg>
<svg id="icon-flag" width="16" height="16" viewBox="0 0 16 16" x="224" y="192">
<path fill="#96939b" d="M0 0h2v16h-2v-16z"></path>
<path fill="#96939b" d="M13 10.047c1.291 0 2.415-0.312 3-0.773v-8c-0.585 0.461-1.709 0.773-3 0.773s-2.415-0.312-3-0.773v8c0.585 0.461 1.709 0.773 3 0.773z"></path>
<path fill="#96939b" d="M9.5 0.508c-0.733-0.312-1.805-0.508-3-0.508-1.506 0-2.818 0.312-3.5 0.773v8c0.682-0.461 1.994-0.773 3.5-0.773 1.195 0 2.267 0.197 3 0.508v-8z"></path>
</svg>
<svg id="icon-attachment" width="16" height="16" viewBox="0 0 16 16" x="256" y="192">
<path fill="#96939b" d="M10.404 5.11l-1.015-1.014-5.075 5.074c-0.841 0.841-0.841 2.204 0 3.044s2.204 0.841 3.045 0l6.090-6.089c1.402-1.401 1.402-3.673 0-5.074s-3.674-1.402-5.075 0l-6.394 6.393c-0.005 0.005-0.010 0.009-0.014 0.013-1.955 1.955-1.955 5.123 0 7.077s5.123 1.954 7.078 0c0.004-0.004 0.008-0.009 0.013-0.014l0.001 0.001 4.365-4.364-1.015-1.014-4.365 4.363c-0.005 0.004-0.009 0.009-0.013 0.013-1.392 1.392-3.656 1.392-5.048 0s-1.392-3.655 0-5.047c0.005-0.005 0.009-0.009 0.014-0.013l-0.001-0.001 6.395-6.393c0.839-0.84 2.205-0.84 3.045 0s0.839 2.205 0 3.044l-6.090 6.089c-0.28 0.28-0.735 0.28-1.015 0s-0.28-0.735 0-1.014l5.075-5.075z"></path>
</svg>
<svg id="icon-eye" width="16" height="16" viewBox="0 0 16 16" x="288" y="192">
<path fill="#96939b" d="M8 3c-3.489 0-6.514 2.032-8 5 1.486 2.968 4.511 5 8 5s6.514-2.032 8-5c-1.486-2.968-4.511-5-8-5zM11.945 5.652c0.94 0.6 1.737 1.403 2.335 2.348-0.598 0.946-1.395 1.749-2.335 2.348-1.181 0.753-2.545 1.152-3.944 1.152s-2.763-0.398-3.945-1.152c-0.94-0.6-1.737-1.403-2.335-2.348 0.598-0.946 1.395-1.749 2.335-2.348 0.061-0.039 0.123-0.077 0.185-0.114-0.156 0.427-0.241 0.888-0.241 1.369 0 2.209 1.791 4 4 4s4-1.791 4-4c0-0.481-0.085-0.942-0.241-1.369 0.062 0.037 0.124 0.075 0.185 0.114v0zM8 6.5c0 0.828-0.672 1.5-1.5 1.5s-1.5-0.672-1.5-1.5 0.672-1.5 1.5-1.5 1.5 0.672 1.5 1.5z"></path>
</svg>
<svg id="icon-eye-plus" width="16" height="16" viewBox="0 0 16 16" x="320" y="192">
<path fill="#96939b" d="M16 2h-2v-2h-2v2h-2v2h2v2h2v-2h2z"></path>
<path fill="#96939b" d="M13.498 6.969c0.288 0.32 0.55 0.665 0.782 1.031-0.598 0.946-1.395 1.749-2.335 2.348-1.181 0.753-2.545 1.152-3.944 1.152s-2.763-0.398-3.945-1.152c-0.94-0.6-1.736-1.403-2.335-2.348 0.598-0.946 1.395-1.749 2.335-2.348 0.061-0.039 0.123-0.077 0.185-0.114-0.156 0.427-0.241 0.888-0.241 1.369 0 2.209 1.791 4 4 4s4-1.791 4-4c0-0.011-0-0.022-0-0.032-1.708-0.44-2.973-1.979-2.999-3.817-0.329-0.037-0.662-0.057-1.001-0.057-3.489 0-6.514 2.032-8 5 1.486 2.968 4.511 5 8 5s6.514-2.032 8-5c-0.276-0.55-0.604-1.069-0.979-1.548-0.457 0.268-0.973 0.449-1.523 0.517zM6.5 5c0.828 0 1.5 0.672 1.5 1.5s-0.672 1.5-1.5 1.5-1.5-0.672-1.5-1.5 0.672-1.5 1.5-1.5z"></path>
</svg>
<svg id="icon-eye-minus" width="16" height="16" viewBox="0 0 16 16" x="352" y="192">
<path fill="#96939b" d="M10 2h6v2h-6v-2z"></path>
<path fill="#96939b" d="M13.599 5h-4.599v-1.944c-0.328-0.037-0.662-0.056-1-0.056-3.489 0-6.514 2.032-8 5 1.486 2.968 4.511 5 8 5s6.514-2.032 8-5c-0.584-1.167-1.407-2.189-2.401-3zM6.5 5c0.828 0 1.5 0.672 1.5 1.5s-0.672 1.5-1.5 1.5-1.5-0.672-1.5-1.5 0.672-1.5 1.5-1.5zM11.944 10.348c-1.181 0.753-2.545 1.152-3.944 1.152s-2.763-0.398-3.945-1.152c-0.94-0.6-1.736-1.403-2.335-2.348 0.598-0.946 1.395-1.749 2.335-2.348 0.061-0.039 0.123-0.077 0.185-0.114-0.156 0.427-0.241 0.888-0.241 1.369 0 2.209 1.791 4 4 4s4-1.791 4-4c0-0.481-0.085-0.942-0.241-1.369 0.062 0.037 0.124 0.075 0.185 0.114 0.94 0.6 1.737 1.403 2.335 2.348-0.598 0.946-1.395 1.749-2.335 2.348z"></path>
</svg>
<svg id="icon-eye-blocked" width="16" height="16" viewBox="0 0 16 16" x="384" y="192">
<path fill="#96939b" d="M14.78 0.22c-0.293-0.293-0.768-0.293-1.061 0l-3.159 3.159c-0.812-0.246-1.671-0.378-2.561-0.378-3.489 0-6.514 2.032-8 5 0.643 1.283 1.573 2.391 2.703 3.236l-2.484 2.484c-0.293 0.293-0.293 0.768 0 1.061 0.146 0.146 0.338 0.22 0.53 0.22s0.384-0.073 0.53-0.22l13.5-13.5c0.293-0.293 0.293-0.768 0-1.061zM6.5 5c0.66 0 1.22 0.426 1.421 1.019l-1.902 1.902c-0.592-0.201-1.019-0.761-1.019-1.421 0-0.828 0.672-1.5 1.5-1.5zM1.721 8c0.598-0.946 1.395-1.749 2.335-2.348 0.061-0.039 0.123-0.077 0.185-0.114-0.156 0.427-0.241 0.888-0.241 1.369 0 0.858 0.27 1.652 0.73 2.303l-0.952 0.952c-0.819-0.576-1.519-1.311-2.057-2.162z"></path>
<path fill="#96939b" d="M12 6.906c0-0.424-0.066-0.833-0.189-1.217l-5.028 5.028c0.384 0.123 0.793 0.189 1.217 0.189 2.209 0 4-1.791 4-4z"></path>
<path fill="#96939b" d="M12.969 4.531l-1.084 1.084c0.020 0.012 0.040 0.024 0.059 0.037 0.94 0.6 1.737 1.403 2.335 2.348-0.598 0.946-1.395 1.749-2.335 2.348-1.181 0.753-2.545 1.152-3.944 1.152-0.604 0-1.202-0.074-1.781-0.219l-1.201 1.201c0.933 0.335 1.937 0.518 2.982 0.518 3.489 0 6.514-2.032 8-5-0.703-1.405-1.752-2.6-3.031-3.469z"></path>
</svg>
<svg id="icon-bookmark" width="16" height="16" viewBox="0 0 16 16" x="416" y="192">
<path fill="#96939b" d="M3 0v16l5-5 5 5v-16z"></path>
</svg>
<svg id="icon-bookmarks" width="16" height="16" viewBox="0 0 16 16" x="448" y="192">
<path fill="#96939b" d="M4 2v14l5-5 5 5v-14zM12 0h-10v14l1-1v-12h9z"></path>
</svg>
<svg id="icon-star-empty" width="16" height="16" viewBox="0 0 16 16" x="480" y="192">
<path fill="#96939b" d="M16 6.204l-5.528-0.803-2.472-5.009-2.472 5.009-5.528 0.803 4 3.899-0.944 5.505 4.944-2.599 4.944 2.599-0.944-5.505 4-3.899zM8 11.773l-3.492 1.836 0.667-3.888-2.825-2.753 3.904-0.567 1.746-3.537 1.746 3.537 3.904 0.567-2.825 2.753 0.667 3.888-3.492-1.836z"></path>
</svg>
<svg id="icon-star-half" width="16" height="16" viewBox="0 0 16 16" x="0" y="224">
<path fill="#96939b" d="M16 6.204l-5.528-0.803-2.472-5.009-2.472 5.009-5.528 0.803 4 3.899-0.944 5.505 4.944-2.599 4.944 2.599-0.944-5.505 4-3.899zM8 11.773l-0.015 0.008 0.015-8.918 1.746 3.537 3.904 0.567-2.825 2.753 0.667 3.888-3.492-1.836z"></path>
</svg>
<svg id="icon-star-full" width="16" height="16" viewBox="0 0 16 16" x="32" y="224">
<path fill="#96939b" d="M16 6.204l-5.528-0.803-2.472-5.009-2.472 5.009-5.528 0.803 4 3.899-0.944 5.505 4.944-2.599 4.944 2.599-0.944-5.505 4-3.899z"></path>
</svg>
<svg id="icon-warning" width="16" height="16" viewBox="0 0 16 16" x="64" y="224">
<path fill="#96939b" d="M8 1.45l6.705 13.363h-13.409l6.705-13.363zM8 0c-0.345 0-0.69 0.233-0.951 0.698l-6.829 13.611c-0.523 0.93-0.078 1.691 0.989 1.691h13.583c1.067 0 1.512-0.761 0.989-1.691h0l-6.829-13.611c-0.262-0.465-0.606-0.698-0.951-0.698v0z"></path>
<path fill="#96939b" d="M9 13c0 0.552-0.448 1-1 1s-1-0.448-1-1c0-0.552 0.448-1 1-1s1 0.448 1 1z"></path>
<path fill="#96939b" d="M8 11c-0.552 0-1-0.448-1-1v-3c0-0.552 0.448-1 1-1s1 0.448 1 1v3c0 0.552-0.448 1-1 1z"></path>
</svg>
<svg id="icon-notification" width="16" height="16" viewBox="0 0 16 16" x="96" y="224">
<path fill="#96939b" d="M8 1.5c-1.736 0-3.369 0.676-4.596 1.904s-1.904 2.86-1.904 4.596c0 1.736 0.676 3.369 1.904 4.596s2.86 1.904 4.596 1.904c1.736 0 3.369-0.676 4.596-1.904s1.904-2.86 1.904-4.596c0-1.736-0.676-3.369-1.904-4.596s-2.86-1.904-4.596-1.904zM8 0v0c4.418 0 8 3.582 8 8s-3.582 8-8 8c-4.418 0-8-3.582-8-8s3.582-8 8-8zM7 11h2v2h-2zM7 3h2v6h-2z"></path>
</svg>
<svg id="icon-question" width="16" height="16" viewBox="0 0 16 16" x="128" y="224">
<path fill="#96939b" d="M7 11h2v2h-2zM11 4c0.552 0 1 0.448 1 1v3l-3 2h-2v-1l3-2v-1h-5v-2h6zM8 1.5c-1.736 0-3.369 0.676-4.596 1.904s-1.904 2.86-1.904 4.596c0 1.736 0.676 3.369 1.904 4.596s2.86 1.904 4.596 1.904c1.736 0 3.369-0.676 4.596-1.904s1.904-2.86 1.904-4.596c0-1.736-0.676-3.369-1.904-4.596s-2.86-1.904-4.596-1.904zM8 0v0c4.418 0 8 3.582 8 8s-3.582 8-8 8c-4.418 0-8-3.582-8-8s3.582-8 8-8z"></path>
</svg>
<svg id="icon-plus" width="16" height="16" viewBox="0 0 16 16" x="160" y="224">
<path fill="#96939b" d="M15.5 6h-5.5v-5.5c0-0.276-0.224-0.5-0.5-0.5h-3c-0.276 0-0.5 0.224-0.5 0.5v5.5h-5.5c-0.276 0-0.5 0.224-0.5 0.5v3c0 0.276 0.224 0.5 0.5 0.5h5.5v5.5c0 0.276 0.224 0.5 0.5 0.5h3c0.276 0 0.5-0.224 0.5-0.5v-5.5h5.5c0.276 0 0.5-0.224 0.5-0.5v-3c0-0.276-0.224-0.5-0.5-0.5z"></path>
</svg>
<svg id="icon-minus" width="16" height="16" viewBox="0 0 16 16" x="192" y="224">
<path fill="#96939b" d="M0 6.5v3c0 0.276 0.224 0.5 0.5 0.5h15c0.276 0 0.5-0.224 0.5-0.5v-3c0-0.276-0.224-0.5-0.5-0.5h-15c-0.276 0-0.5 0.224-0.5 0.5z"></path>
</svg>
<svg id="icon-info" width="16" height="16" viewBox="0 0 16 16" x="224" y="224">
<path fill="#96939b" d="M7 4.75c0-0.412 0.338-0.75 0.75-0.75h0.5c0.412 0 0.75 0.338 0.75 0.75v0.5c0 0.412-0.338 0.75-0.75 0.75h-0.5c-0.412 0-0.75-0.338-0.75-0.75v-0.5z"></path>
<path fill="#96939b" d="M10 12h-4v-1h1v-3h-1v-1h3v4h1z"></path>
<path fill="#96939b" d="M8 0c-4.418 0-8 3.582-8 8s3.582 8 8 8 8-3.582 8-8-3.582-8-8-8zM8 14.5c-3.59 0-6.5-2.91-6.5-6.5s2.91-6.5 6.5-6.5 6.5 2.91 6.5 6.5-2.91 6.5-6.5 6.5z"></path>
</svg>
<svg id="icon-cancel-circle" width="16" height="16" viewBox="0 0 16 16" x="256" y="224">
<path fill="#96939b" d="M8 0c-4.418 0-8 3.582-8 8s3.582 8 8 8 8-3.582 8-8-3.582-8-8-8zM8 14.5c-3.59 0-6.5-2.91-6.5-6.5s2.91-6.5 6.5-6.5 6.5 2.91 6.5 6.5-2.91 6.5-6.5 6.5z"></path>
<path fill="#96939b" d="M10.5 4l-2.5 2.5-2.5-2.5-1.5 1.5 2.5 2.5-2.5 2.5 1.5 1.5 2.5-2.5 2.5 2.5 1.5-1.5-2.5-2.5 2.5-2.5z"></path>
</svg>
<svg id="icon-blocked" width="16" height="16" viewBox="0 0 16 16" x="288" y="224">
<path fill="#96939b" d="M13.657 2.343c-1.511-1.511-3.52-2.343-5.657-2.343s-4.146 0.832-5.657 2.343c-1.511 1.511-2.343 3.52-2.343 5.657s0.832 4.146 2.343 5.657c1.511 1.511 3.52 2.343 5.657 2.343s4.146-0.832 5.657-2.343c1.511-1.511 2.343-3.52 2.343-5.657s-0.832-4.146-2.343-5.657zM14 8c0 1.294-0.412 2.494-1.111 3.475l-8.364-8.364c0.981-0.699 2.181-1.111 3.475-1.111 3.308 0 6 2.692 6 6zM2 8c0-1.294 0.412-2.494 1.111-3.475l8.364 8.364c-0.981 0.699-2.181 1.111-3.475 1.111-3.308 0-6-2.692-6-6z"></path>
</svg>
<svg id="icon-cross" width="16" height="16" viewBox="0 0 16 16" x="320" y="224">
<path fill="#96939b" d="M15.854 12.854c-0-0-0-0-0-0l-4.854-4.854 4.854-4.854c0-0 0-0 0-0 0.052-0.052 0.090-0.113 0.114-0.178 0.066-0.178 0.028-0.386-0.114-0.529l-2.293-2.293c-0.143-0.143-0.351-0.181-0.529-0.114-0.065 0.024-0.126 0.062-0.178 0.114 0 0-0 0-0 0l-4.854 4.854-4.854-4.854c-0-0-0-0-0-0-0.052-0.052-0.113-0.090-0.178-0.114-0.178-0.066-0.386-0.029-0.529 0.114l-2.293 2.293c-0.143 0.143-0.181 0.351-0.114 0.529 0.024 0.065 0.062 0.126 0.114 0.178 0 0 0 0 0 0l4.854 4.854-4.854 4.854c-0 0-0 0-0 0-0.052 0.052-0.090 0.113-0.114 0.178-0.066 0.178-0.029 0.386 0.114 0.529l2.293 2.293c0.143 0.143 0.351 0.181 0.529 0.114 0.065-0.024 0.126-0.062 0.178-0.114 0-0 0-0 0-0l4.854-4.854 4.854 4.854c0 0 0 0 0 0 0.052 0.052 0.113 0.090 0.178 0.114 0.178 0.066 0.386 0.029 0.529-0.114l2.293-2.293c0.143-0.143 0.181-0.351 0.114-0.529-0.024-0.065-0.062-0.126-0.114-0.178z"></path>
</svg>
<svg id="icon-checkmark" width="16" height="16" viewBox="0 0 16 16" x="352" y="224">
<path fill="#96939b" d="M13.5 2l-7.5 7.5-3.5-3.5-2.5 2.5 6 6 10-10z"></path>
</svg>
<svg id="icon-checkmark2" width="16" height="16" viewBox="0 0 16 16" x="384" y="224">
<path fill="#96939b" d="M6.21 14.339l-6.217-6.119 3.084-3.035 3.133 3.083 6.713-6.607 3.084 3.035-9.797 9.643zM1.686 8.22l4.524 4.453 8.104-7.976-1.391-1.369-6.713 6.607-3.133-3.083-1.391 1.369z"></path>
</svg>
<svg id="icon-spell-check" width="16" height="16" viewBox="0 0 16 16" x="416" y="224">
<path fill="#96939b" d="M2 4h2v3h1v-6c0-0.55-0.45-1-1-1h-2c-0.55 0-1 0.45-1 1v6h1v-3zM2 1h2v2h-2v-2zM15 1v-1h-3c-0.55 0-1 0.45-1 1v5c0 0.55 0.45 1 1 1h3v-1h-3v-5h3zM10 2.5v-1.5c0-0.55-0.45-1-1-1h-3v7h3c0.55 0 1-0.45 1-1v-1.5c0-0.55-0.137-1-0.688-1 0.55 0 0.688-0.45 0.688-1zM9 6h-2v-2h2v2zM9 3h-2v-2h2v2zM13 9l-6.5 7-3.5-4.5 1.281-1.094 2.219 2.313 5.5-4.719z"></path>
</svg>
<svg id="icon-enter" width="16" height="16" viewBox="0 0 16 16" x="448" y="224">
<path fill="#96939b" d="M6 8h-5v-2h5v-2l3 3-3 3zM16 0v13l-6 3v-3h-6v-4h1v3h5v-9l4-2h-9v4h-1v-5z"></path>
</svg>
<svg id="icon-exit" width="16" height="16" viewBox="0 0 16 16" x="480" y="224">
<path fill="#96939b" d="M12 10v-2h-5v-2h5v-2l3 3zM11 9v4h-5v3l-6-3v-13h11v5h-1v-4h-8l4 2v9h4v-3z"></path>
</svg>
<svg id="icon-play3" width="16" height="16" viewBox="0 0 16 16" x="0" y="256">
<path fill="#96939b" d="M3 2l10 6-10 6z"></path>
</svg>
<svg id="icon-pause2" width="16" height="16" viewBox="0 0 16 16" x="32" y="256">
<path fill="#96939b" d="M2 2h5v12h-5zM9 2h5v12h-5z"></path>
</svg>
<svg id="icon-stop2" width="16" height="16" viewBox="0 0 16 16" x="64" y="256">
<path fill="#96939b" d="M2 2h12v12h-12z"></path>
</svg>
<svg id="icon-backward2" width="16" height="16" viewBox="0 0 16 16" x="96" y="256">
<path fill="#96939b" d="M9 2.5v5l5-5v11l-5-5v5l-5.5-5.5z"></path>
</svg>
<svg id="icon-forward3" width="16" height="16" viewBox="0 0 16 16" x="128" y="256">
<path fill="#96939b" d="M8 13.5v-5l-5 5v-11l5 5v-5l5.5 5.5z"></path>
</svg>
<svg id="icon-first" width="16" height="16" viewBox="0 0 16 16" x="160" y="256">
<path fill="#96939b" d="M2 14v-12h2v5.5l5-5v5l5-5v11l-5-5v5l-5-5v5.5z"></path>
</svg>
<svg id="icon-last" width="16" height="16" viewBox="0 0 16 16" x="192" y="256">
<path fill="#96939b" d="M14 2v12h-2v-5.5l-5 5v-5l-5 5v-11l5 5v-5l5 5v-5.5z"></path>
</svg>
<svg id="icon-previous2" width="16" height="16" viewBox="0 0 16 16" x="224" y="256">
<path fill="#96939b" d="M4 14v-12h2v5.5l5-5v11l-5-5v5.5z"></path>
</svg>
<svg id="icon-next2" width="16" height="16" viewBox="0 0 16 16" x="256" y="256">
<path fill="#96939b" d="M12 2v12h-2v-5.5l-5 5v-11l5 5v-5.5z"></path>
</svg>
<svg id="icon-volume-high" width="17" height="16" viewBox="0 0 17 16" x="288" y="256">
<path fill="#96939b" d="M13.907 14.407c-0.192 0-0.384-0.073-0.53-0.22-0.293-0.293-0.293-0.768 0-1.061 1.369-1.369 2.123-3.19 2.123-5.127s-0.754-3.757-2.123-5.127c-0.293-0.293-0.293-0.768 0-1.061s0.768-0.293 1.061 0c1.653 1.653 2.563 3.85 2.563 6.187s-0.91 4.534-2.563 6.187c-0.146 0.146-0.338 0.22-0.53 0.22zM11.243 12.993c-0.192 0-0.384-0.073-0.53-0.22-0.293-0.293-0.293-0.768 0-1.061 2.047-2.047 2.047-5.378 0-7.425-0.293-0.293-0.293-0.768 0-1.061s0.768-0.293 1.061 0c1.275 1.275 1.977 2.97 1.977 4.773s-0.702 3.498-1.977 4.773c-0.146 0.146-0.338 0.22-0.53 0.22v0zM8.578 11.578c-0.192 0-0.384-0.073-0.53-0.22-0.293-0.293-0.293-0.768 0-1.061 1.267-1.267 1.267-3.329 0-4.596-0.293-0.293-0.293-0.768 0-1.061s0.768-0.293 1.061 0c1.852 1.852 1.852 4.865 0 6.718-0.146 0.146-0.338 0.22-0.53 0.22z"></path>
<path fill="#96939b" d="M6.5 15c-0.13 0-0.258-0.051-0.354-0.146l-3.854-3.854h-1.793c-0.276 0-0.5-0.224-0.5-0.5v-5c0-0.276 0.224-0.5 0.5-0.5h1.793l3.854-3.854c0.143-0.143 0.358-0.186 0.545-0.108s0.309 0.26 0.309 0.462v13c0 0.202-0.122 0.385-0.309 0.462-0.062 0.026-0.127 0.038-0.191 0.038z"></path>
</svg>
<svg id="icon-volume-medium" width="16" height="16" viewBox="0 0 16 16" x="320" y="256">
<path fill="#96939b" d="M11.243 12.993c-0.192 0-0.384-0.073-0.53-0.22-0.293-0.293-0.293-0.768 0-1.061 2.047-2.047 2.047-5.378 0-7.425-0.293-0.293-0.293-0.768 0-1.061s0.768-0.293 1.061 0c1.275 1.275 1.977 2.97 1.977 4.773s-0.702 3.498-1.977 4.773c-0.146 0.146-0.338 0.22-0.53 0.22v0zM8.578 11.578c-0.192 0-0.384-0.073-0.53-0.22-0.293-0.293-0.293-0.768 0-1.061 1.267-1.267 1.267-3.329 0-4.596-0.293-0.293-0.293-0.768 0-1.061s0.768-0.293 1.061 0c1.852 1.852 1.852 4.865 0 6.718-0.146 0.146-0.338 0.22-0.53 0.22z"></path>
<path fill="#96939b" d="M6.5 15c-0.13 0-0.258-0.051-0.354-0.146l-3.854-3.854h-1.793c-0.276 0-0.5-0.224-0.5-0.5v-5c0-0.276 0.224-0.5 0.5-0.5h1.793l3.854-3.854c0.143-0.143 0.358-0.186 0.545-0.108s0.309 0.26 0.309 0.462v13c0 0.202-0.122 0.385-0.309 0.462-0.062 0.026-0.127 0.038-0.191 0.038z"></path>
</svg>
<svg id="icon-volume-low" width="16" height="16" viewBox="0 0 16 16" x="352" y="256">
<path fill="#96939b" d="M8.578 11.578c-0.192 0-0.384-0.073-0.53-0.22-0.293-0.293-0.293-0.768 0-1.061 1.267-1.267 1.267-3.329 0-4.596-0.293-0.293-0.293-0.768 0-1.061s0.768-0.293 1.061 0c1.852 1.852 1.852 4.865 0 6.718-0.146 0.146-0.338 0.22-0.53 0.22z"></path>
<path fill="#96939b" d="M6.5 15c-0.13 0-0.258-0.051-0.354-0.146l-3.854-3.854h-1.793c-0.276 0-0.5-0.224-0.5-0.5v-5c0-0.276 0.224-0.5 0.5-0.5h1.793l3.854-3.854c0.143-0.143 0.358-0.186 0.545-0.108s0.309 0.26 0.309 0.462v13c0 0.202-0.122 0.385-0.309 0.462-0.062 0.026-0.127 0.038-0.191 0.038z"></path>
</svg>
<svg id="icon-volume-mute" width="16" height="16" viewBox="0 0 16 16" x="384" y="256">
<path fill="#96939b" d="M6.5 15c-0.13 0-0.258-0.051-0.354-0.146l-3.854-3.854h-1.793c-0.276 0-0.5-0.224-0.5-0.5v-5c0-0.276 0.224-0.5 0.5-0.5h1.793l3.854-3.854c0.143-0.143 0.358-0.186 0.545-0.108s0.309 0.26 0.309 0.462v13c0 0.202-0.122 0.385-0.309 0.462-0.062 0.026-0.127 0.038-0.191 0.038z"></path>
</svg>
<svg id="icon-volume-mute2" width="16" height="16" viewBox="0 0 16 16" x="416" y="256">
<path fill="#96939b" d="M15 9.674v1.326h-1.326l-1.674-1.674-1.674 1.674h-1.326v-1.326l1.674-1.674-1.674-1.674v-1.326h1.326l1.674 1.674 1.674-1.674h1.326v1.326l-1.674 1.674 1.674 1.674z"></path>
<path fill="#96939b" d="M6.5 15c-0.13 0-0.258-0.051-0.354-0.146l-3.854-3.854h-1.793c-0.276 0-0.5-0.224-0.5-0.5v-5c0-0.276 0.224-0.5 0.5-0.5h1.793l3.854-3.854c0.143-0.143 0.358-0.186 0.545-0.108s0.309 0.26 0.309 0.462v13c0 0.202-0.122 0.385-0.309 0.462-0.062 0.026-0.127 0.038-0.191 0.038z"></path>
</svg>
<svg id="icon-volume-increase" width="16" height="16" viewBox="0 0 16 16" x="448" y="256">
<path fill="#96939b" d="M16 9h-3v3h-2v-3h-3v-2h3v-3h2v3h3v2z"></path>
<path fill="#96939b" d="M6.5 15c-0.13 0-0.258-0.051-0.354-0.146l-3.854-3.854h-1.793c-0.276 0-0.5-0.224-0.5-0.5v-5c0-0.276 0.224-0.5 0.5-0.5h1.793l3.854-3.854c0.143-0.143 0.358-0.186 0.545-0.108s0.309 0.26 0.309 0.462v13c0 0.202-0.122 0.385-0.309 0.462-0.062 0.026-0.127 0.038-0.191 0.038z"></path>
</svg>
<svg id="icon-volume-decrease" width="16" height="16" viewBox="0 0 16 16" x="480" y="256">
<path fill="#96939b" d="M8 7h8v2h-8v-2z"></path>
<path fill="#96939b" d="M6.5 15c-0.13 0-0.258-0.051-0.354-0.146l-3.854-3.854h-1.793c-0.276 0-0.5-0.224-0.5-0.5v-5c0-0.276 0.224-0.5 0.5-0.5h1.793l3.854-3.854c0.143-0.143 0.358-0.186 0.545-0.108s0.309 0.26 0.309 0.462v13c0 0.202-0.122 0.385-0.309 0.462-0.062 0.026-0.127 0.038-0.191 0.038z"></path>
</svg>
<svg id="icon-loop" width="16" height="16" viewBox="0 0 16 16" x="0" y="288">
<path fill="#96939b" d="M2 5h10v3l4-4-4-4v3h-12v6h2zM14 11h-10v-3l-4 4 4 4v-3h12v-6h-2z"></path>
</svg>
<svg id="icon-loop2" width="16" height="16" viewBox="0 0 16 16" x="32" y="288">
<path fill="#96939b" d="M13.901 2.599c-1.463-1.597-3.565-2.599-5.901-2.599-4.418 0-8 3.582-8 8h1.5c0-3.59 2.91-6.5 6.5-6.5 1.922 0 3.649 0.835 4.839 2.161l-2.339 2.339h5.5v-5.5l-2.099 2.099z"></path>
<path fill="#96939b" d="M14.5 8c0 3.59-2.91 6.5-6.5 6.5-1.922 0-3.649-0.835-4.839-2.161l2.339-2.339h-5.5v5.5l2.099-2.099c1.463 1.597 3.565 2.599 5.901 2.599 4.418 0 8-3.582 8-8h-1.5z"></path>
</svg>
<svg id="icon-shuffle" width="16" height="16" viewBox="0 0 16 16" x="64" y="288">
<path fill="#96939b" d="M12 11h-1.586l-2.5-2.5 2.5-2.5h1.586v2.5l3.5-3.5-3.5-3.5v2.5h-2c-0.265 0-0.52 0.105-0.707 0.293l-2.793 2.793-2.793-2.793c-0.188-0.188-0.442-0.293-0.707-0.293h-3v2h2.586l2.5 2.5-2.5 2.5h-2.586v2h3c0.265 0 0.52-0.105 0.707-0.293l2.793-2.793 2.793 2.793c0.188 0.188 0.442 0.293 0.707 0.293h2v2.5l3.5-3.5-3.5-3.5v2.5z"></path>
</svg>
<svg id="icon-arrow-up-left" width="16" height="16" viewBox="0 0 16 16" x="96" y="288">
<path fill="#96939b" d="M0 11.5l4-4 8.5 8.5 3.5-3.5-8.5-8.5 4-4h-11.5v11.5z"></path>
</svg>
<svg id="icon-arrow-up" width="16" height="16" viewBox="0 0 16 16" x="128" y="288">
<path fill="#96939b" d="M8 0.5l-7.5 7.5h4.5v8h6v-8h4.5z"></path>
</svg>
<svg id="icon-arrow-up-right" width="16" height="16" viewBox="0 0 16 16" x="160" y="288">
<path fill="#96939b" d="M4.5 0l4 4-8.5 8.5 3.5 3.5 8.5-8.5 4 4v-11.5h-11.5z"></path>
</svg>
<svg id="icon-arrow-right" width="16" height="16" viewBox="0 0 16 16" x="192" y="288">
<path fill="#96939b" d="M15.5 8l-7.5-7.5v4.5h-8v6h8v4.5z"></path>
</svg>
<svg id="icon-arrow-down-right" width="16" height="16" viewBox="0 0 16 16" x="224" y="288">
<path fill="#96939b" d="M16 4.5l-4 4-8.5-8.5-3.5 3.5 8.5 8.5-4 4h11.5v-11.5z"></path>
</svg>
<svg id="icon-arrow-down" width="16" height="16" viewBox="0 0 16 16" x="256" y="288">
<path fill="#96939b" d="M8 15.5l7.5-7.5h-4.5v-8h-6v8h-4.5z"></path>
</svg>
<svg id="icon-arrow-down-left" width="16" height="16" viewBox="0 0 16 16" x="288" y="288">
<path fill="#96939b" d="M11.5 16l-4-4 8.5-8.5-3.5-3.5-8.5 8.5-4-4v11.5h11.5z"></path>
</svg>
<svg id="icon-arrow-left" width="16" height="16" viewBox="0 0 16 16" x="320" y="288">
<path fill="#96939b" d="M0.5 8l7.5 7.5v-4.5h8v-6h-8v-4.5z"></path>
</svg>
<svg id="icon-pilcrow" width="16" height="16" viewBox="0 0 16 16" x="352" y="288">
<path fill="#96939b" d="M6 0h8v2h-2v14h-2v-14h-2v14h-2v-8c-2.209 0-4-1.791-4-4s1.791-4 4-4z"></path>
</svg>
<svg id="icon-share" width="16" height="16" viewBox="0 0 16 16" x="384" y="288">
<path fill="#96939b" d="M4 10c0 0 0.919-3 6-3v3l6-4-6-4v3c-4 0-6 2.495-6 5zM11 12h-9v-6h1.967c0.158-0.186 0.327-0.365 0.508-0.534 0.687-0.644 1.509-1.135 2.439-1.466h-6.914v10h13v-4.197l-2 1.333v0.864z"></path>
</svg>
<svg id="icon-new-tab" width="16" height="16" viewBox="0 0 16 16" x="416" y="288">
<path fill="#96939b" d="M3 1v12h12v-12h-12zM14 12h-10v-10h10v10zM2 14v-10.5l-1-1v12.5h12.5l-1-1h-10.5z"></path>
<path fill="#96939b" d="M5.5 4l2.5 2.5-3 3 1.5 1.5 3-3 2.5 2.5v-6.5z"></path>
</svg>
<svg id="icon-embed" width="16" height="16" viewBox="0 0 16 16" x="448" y="288">
<path fill="#96939b" d="M9 11.5l1.5 1.5 5-5-5-5-1.5 1.5 3.5 3.5z"></path>
<path fill="#96939b" d="M7 4.5l-1.5-1.5-5 5 5 5 1.5-1.5-3.5-3.5z"></path>
</svg>
<svg id="icon-embed2" width="20" height="16" viewBox="0 0 20 16" x="0" y="320">
<path fill="#96939b" d="M13 11.5l1.5 1.5 5-5-5-5-1.5 1.5 3.5 3.5z"></path>
<path fill="#96939b" d="M7 4.5l-1.5-1.5-5 5 5 5 1.5-1.5-3.5-3.5z"></path>
<path fill="#96939b" d="M10.958 2.352l1.085 0.296-3 11-1.085-0.296 3-11z"></path>
</svg>
<svg id="icon-google-drive" width="16" height="16" viewBox="0 0 16 16" x="32" y="320">
<path fill="#96939b" d="M6.844 10l-2.884 5h9.072l2.884-5z"></path>
<path fill="#96939b" d="M15.506 9l-4.619-8h-5.775l4.619 8z"></path>
<path fill="#96939b" d="M4.534 2l-4.534 7.856 2.888 5 4.534-7.856z"></path>
</svg>
<svg id="icon-facebook2" width="16" height="16" viewBox="0 0 16 16" x="64" y="320">
<path fill="#96939b" d="M14.5 0h-13c-0.825 0-1.5 0.675-1.5 1.5v13c0 0.825 0.675 1.5 1.5 1.5h6.5v-7h-2v-2h2v-1c0-1.653 1.347-3 3-3h2v2h-2c-0.55 0-1 0.45-1 1v1h3l-0.5 2h-2.5v7h4.5c0.825 0 1.5-0.675 1.5-1.5v-13c0-0.825-0.675-1.5-1.5-1.5z"></path>
</svg>
<svg id="icon-twitter" width="16" height="16" viewBox="0 0 16 16" x="96" y="320">
<path fill="#96939b" d="M16 3.538c-0.588 0.263-1.222 0.438-1.884 0.516 0.678-0.406 1.197-1.050 1.444-1.816-0.634 0.375-1.338 0.65-2.084 0.797-0.6-0.638-1.453-1.034-2.397-1.034-1.813 0-3.281 1.469-3.281 3.281 0 0.256 0.028 0.506 0.084 0.747-2.728-0.138-5.147-1.444-6.766-3.431-0.281 0.484-0.444 1.050-0.444 1.65 0 1.138 0.578 2.144 1.459 2.731-0.538-0.016-1.044-0.166-1.488-0.409 0 0.013 0 0.028 0 0.041 0 1.591 1.131 2.919 2.634 3.219-0.275 0.075-0.566 0.116-0.866 0.116-0.212 0-0.416-0.022-0.619-0.059 0.419 1.303 1.631 2.253 3.066 2.281-1.125 0.881-2.538 1.406-4.078 1.406-0.266 0-0.525-0.016-0.784-0.047 1.456 0.934 3.181 1.475 5.034 1.475 6.037 0 9.341-5.003 9.341-9.341 0-0.144-0.003-0.284-0.009-0.425 0.641-0.459 1.197-1.038 1.637-1.697z"></path>
</svg>
<svg id="icon-rss" width="16" height="16" viewBox="0 0 16 16" x="128" y="320">
<path fill="#96939b" d="M2.13 11.733c-1.175 0-2.13 0.958-2.13 2.126 0 1.174 0.955 2.122 2.13 2.122 1.179 0 2.133-0.948 2.133-2.122-0-1.168-0.954-2.126-2.133-2.126zM0.002 5.436v3.067c1.997 0 3.874 0.781 5.288 2.196 1.412 1.411 2.192 3.297 2.192 5.302h3.080c-0-5.825-4.739-10.564-10.56-10.564zM0.006 0v3.068c7.122 0 12.918 5.802 12.918 12.932h3.076c0-8.82-7.176-16-15.994-16z"></path>
</svg>
<svg id="icon-rss2" width="16" height="16" viewBox="0 0 16 16" x="160" y="320">
<path fill="#96939b" d="M14.5 0h-13c-0.825 0-1.5 0.675-1.5 1.5v13c0 0.825 0.675 1.5 1.5 1.5h13c0.825 0 1.5-0.675 1.5-1.5v-13c0-0.825-0.675-1.5-1.5-1.5zM4.359 12.988c-0.75 0-1.359-0.603-1.359-1.353 0-0.744 0.609-1.356 1.359-1.356 0.753 0 1.359 0.613 1.359 1.356 0 0.75-0.609 1.353-1.359 1.353zM7.772 13c0-1.278-0.497-2.481-1.397-3.381-0.903-0.903-2.1-1.4-3.375-1.4v-1.956c3.713 0 6.738 3.022 6.738 6.737h-1.966zM11.244 13c0-4.547-3.697-8.25-8.241-8.25v-1.956c5.625 0 10.203 4.581 10.203 10.206h-1.963z"></path>
</svg>
<svg id="icon-youtube" width="16" height="16" viewBox="0 0 16 16" x="192" y="320">
<path fill="#96939b" d="M15.841 4.8c0 0-0.156-1.103-0.637-1.587-0.609-0.637-1.291-0.641-1.603-0.678-2.237-0.163-5.597-0.163-5.597-0.163h-0.006c0 0-3.359 0-5.597 0.163-0.313 0.038-0.994 0.041-1.603 0.678-0.481 0.484-0.634 1.587-0.634 1.587s-0.159 1.294-0.159 2.591v1.213c0 1.294 0.159 2.591 0.159 2.591s0.156 1.103 0.634 1.588c0.609 0.637 1.409 0.616 1.766 0.684 1.281 0.122 5.441 0.159 5.441 0.159s3.363-0.006 5.6-0.166c0.313-0.037 0.994-0.041 1.603-0.678 0.481-0.484 0.637-1.588 0.637-1.588s0.159-1.294 0.159-2.591v-1.213c-0.003-1.294-0.162-2.591-0.162-2.591zM6.347 10.075v-4.497l4.322 2.256-4.322 2.241z"></path>
</svg>
<svg id="icon-flickr" width="16" height="16" viewBox="0 0 16 16" x="224" y="320">
<path fill="#96939b" d="M0 8.5c0-1.933 1.567-3.5 3.5-3.5s3.5 1.567 3.5 3.5c0 1.933-1.567 3.5-3.5 3.5s-3.5-1.567-3.5-3.5zM9 8.5c0-1.933 1.567-3.5 3.5-3.5s3.5 1.567 3.5 3.5c0 1.933-1.567 3.5-3.5 3.5s-3.5-1.567-3.5-3.5z"></path>
</svg>
<svg id="icon-flickr2" width="16" height="16" viewBox="0 0 16 16" x="256" y="320">
<path fill="#96939b" d="M12.5 6.5c-1.103 0-2 0.897-2 2s0.897 2 2 2c1.103 0 2-0.897 2-2s-0.897-2-2-2zM12.5 5v0c1.933 0 3.5 1.567 3.5 3.5s-1.567 3.5-3.5 3.5-3.5-1.567-3.5-3.5c0-1.933 1.567-3.5 3.5-3.5zM0 8.5c0-1.933 1.567-3.5 3.5-3.5s3.5 1.567 3.5 3.5c0 1.933-1.567 3.5-3.5 3.5s-3.5-1.567-3.5-3.5z"></path>
</svg>
<svg id="icon-dropbox" width="16" height="16" viewBox="0 0 16 16" x="288" y="320">
<path fill="#96939b" d="M11.5 0.5l-3.5 3 4.5 3 3.5-3z"></path>
<path fill="#96939b" d="M8 3.5l-3.5-3-4.5 3 3.5 3z"></path>
<path fill="#96939b" d="M12.5 6.5l3.5 3-4.5 2.5-3.5-3z"></path>
<path fill="#96939b" d="M8 9l-4.5-2.5-3.5 3 4.5 2.5z"></path>
<path fill="#96939b" d="M11.377 13.212l-3.377-2.895-3.377 2.895-2.123-1.179v1.467l5.5 2.5 5.5-2.5v-1.467z"></path>
</svg>
<svg id="icon-onedrive" width="16" height="16" viewBox="0 0 16 16" x="320" y="320">
<path fill="#96939b" d="M5.482 12.944c-0.942-0.235-1.466-0.984-1.468-2.095-0-0.355 0.025-0.525 0.114-0.754 0.217-0.56 0.793-0.982 1.55-1.138 0.377-0.077 0.493-0.16 0.493-0.353 0-0.060 0.045-0.24 0.1-0.399 0.249-0.724 0.71-1.327 1.202-1.573 0.515-0.258 0.776-0.316 1.399-0.313 0.886 0.005 1.327 0.197 1.945 0.846l0.34 0.357 0.304-0.105c1.473-0.51 2.942 0.358 3.061 1.809l0.032 0.397 0.29 0.104c0.829 0.297 1.218 0.92 1.148 1.837-0.046 0.599-0.326 1.078-0.77 1.315l-0.209 0.112-4.638 0.009c-3.564 0.007-4.697-0.006-4.893-0.055v0zM1.613 12.281c-0.565-0.142-1.164-0.67-1.445-1.273-0.159-0.342-0.168-0.393-0.168-0.998 0-0.576 0.014-0.668 0.14-0.954 0.267-0.603 0.78-1.038 1.422-1.21 0.136-0.036 0.263-0.094 0.283-0.128s0.043-0.221 0.050-0.415c0.045-1.206 0.794-2.269 1.839-2.61 0.565-0.184 1.306-0.202 1.92 0.058 0.195 0.082 0.173 0.1 0.585-0.471 0.244-0.338 0.705-0.695 1.108-0.909 0.435-0.231 0.887-0.337 1.428-0.336 1.512 0.004 2.815 1.003 3.297 2.529 0.154 0.487 0.146 0.624-0.035 0.628-0.079 0.002-0.306 0.048-0.505 0.102l-0.361 0.099-0.329-0.348c-0.928-0.98-2.441-1.192-3.728-0.522-0.514 0.268-0.927 0.652-1.239 1.153-0.222 0.357-0.506 1.024-0.506 1.189 0 0.117-0.090 0.176-0.474 0.309-1.189 0.412-1.883 1.364-1.882 2.582 0 0.443 0.108 0.986 0.258 1.296 0.057 0.117 0.088 0.228 0.070 0.247-0.046 0.049-1.525 0.032-1.73-0.019v0z"></path>
</svg>
<svg id="icon-github" width="16" height="16" viewBox="0 0 16 16" x="352" y="320">
<path fill="#96939b" d="M8 0.198c-4.418 0-8 3.582-8 8 0 3.535 2.292 6.533 5.471 7.591 0.4 0.074 0.547-0.174 0.547-0.385 0-0.191-0.008-0.821-0.011-1.489-2.226 0.484-2.695-0.944-2.695-0.944-0.364-0.925-0.888-1.171-0.888-1.171-0.726-0.497 0.055-0.486 0.055-0.486 0.803 0.056 1.226 0.824 1.226 0.824 0.714 1.223 1.872 0.869 2.328 0.665 0.072-0.517 0.279-0.87 0.508-1.070-1.777-0.202-3.645-0.888-3.645-3.954 0-0.873 0.313-1.587 0.824-2.147-0.083-0.202-0.357-1.015 0.077-2.117 0 0 0.672-0.215 2.201 0.82 0.638-0.177 1.322-0.266 2.002-0.269 0.68 0.003 1.365 0.092 2.004 0.269 1.527-1.035 2.198-0.82 2.198-0.82 0.435 1.102 0.162 1.916 0.079 2.117 0.513 0.56 0.823 1.274 0.823 2.147 0 3.073-1.872 3.749-3.653 3.947 0.287 0.248 0.543 0.735 0.543 1.481 0 1.070-0.009 1.932-0.009 2.195 0 0.213 0.144 0.462 0.55 0.384 3.177-1.059 5.466-4.057 5.466-7.59 0-4.418-3.582-8-8-8z"></path>
</svg>
</svg>
